<mxfile host="app.diagrams.net" modified="2023-03-21T04:15:52.482Z" agent="5.0 (Windows NT 10.0; Win64; x64) AppleWebKit/537.36 (KHTML, like Gecko) Chrome/111.0.0.0 Safari/537.36" etag="ebo7nExPV6IUTOcy_KkW" version="21.0.6" type="github">
  <diagram name="第 1 页" id="spY2WmxLtpU6RqsmrdPd">
    <mxGraphModel dx="1434" dy="828" grid="1" gridSize="10" guides="1" tooltips="1" connect="1" arrows="1" fold="1" page="1" pageScale="1" pageWidth="827" pageHeight="1169" math="0" shadow="0">
      <root>
        <mxCell id="0" />
        <mxCell id="1" parent="0" />
        <mxCell id="LvfSIXSQXbOh8M_P0ZGA-18" value="" style="shape=image;verticalLabelPosition=bottom;labelBackgroundColor=default;verticalAlign=top;aspect=fixed;imageAspect=0;image=data:image/png,iVBORw0KGgoAAAANSUhEUgAAA/IAAAMqCAIAAACube0tAACAAElEQVR42uzdf5ibdZ3v/3GdA8OSxQCh5mCE1OZg4BpkuAg4+O1ihHiMWrcjG5dieyRCVqMUOmevAaIWdo6Ey9rNucjSqGHJhYETNXbj6WyJJXYDEYJM29k113HElMYlhWkZuqmNkNIwxDbfz0zaIZ1fzCR3Zu47eT7+gJm7M3fuvO9P3p9X7rlz321lAAAAAArXRgkAAAAAYj0AAAAAYj0AAAAAYj0AAABArF+AXC4XCoUcDofZbDYajXq9vrOz02KxOJ3OSCRSKBSW5jm8myXZKnnWqhmGrCx3txK1+BBlIAEAWjTWJ5NJq9WqVqttNpvf708kEul0OpvNDg8Px+Nxn883+a9iSYtPz3KuFWkMDFEGEgCgRWN9JpPp6enR6/XBYLBYLM7xk4VCwev1arVau90+OjragtOz/GtFGmtxDFEGEgCgRWN9PB4X87rH45k7AVTL5/Mul0vkhlQq1VLTsyJqRRprZQxRBhIAoEVjfSAQECEgkUjUsN5wOCx+NxqNtsj0rJRakcZaFkOUgQQAaNFYH4vFdDpdJpOpedWDg4MiCizCQb4ln54VVCvSWGtiiDKQAAAtGuvT6bRGo0kmk3WuPRwO6/X6Rp+Yu7TTs7JqRRprQQxRBhIAoHVjvdls9vv9kjyAy+Wy2+1NPD0rq1aksRbEEGUgAQBaNNbHYjGj0VgqlSR5gHw+r9VqG3qZvCWcnhVXK9JYq2GIMpAAAK0b600m08DAgISP4fV6bTZbU07PiqsVaazVMEQZSACAFo31mUxGp9NJ+xiFQkGtVtdz08qRkZElmZ6DwWA+n5/tX+VZqyYwR81JY1P4/f45TnZv8SE690YykAAATR7rPR6P0+mU/GGsVmskEqn5191ud29v72zxpXHT88DAgEgw/f39MwZNedaqCfT19c1Wc9LYFMlksqOjY/369TNe5abFh6jL5WIgAQBaN9aLCbsRV6f2+Xz1xItCoaDVakV8EYFv+iTd0Ol51apVYg0zhnt51qoJ5HI5UXCxx71e7/QbJ5HGpli3bp141u3t7Xa7fUq4b/EhWhlIs70zZyABAJo81hsMhne9uHUsFrv88svPOOOMCy+88B/+4R/m8zDxeNxisdSzoaFQqDLXTp+kGzo9Z7NZ8Xaish7xRfUfDeZTqxrUX6smIAJ9pebTwz1pbAoxIMWLovLcp4R7hqjf769URqPRMJAAAK0V61Uq1bueNfu+971vcuYTqUvM8e/6MMPDw52dnXVua3d39+TjihwzOUk3enp2u93Va5sM9/OpVQ0kqZXSlUolUYTqYbZou1vR74KmhHuGKAMJANC6sX4+k1n1zHfxxRfPZ4Lfs2dPWzNqxC5p1lqBIUrpAABYvFjf0dEx/WzmKdrb2ydnvquuumo+V7tLp9NGo7HObbXb7dWTbuXAW6FQaOj0POVon8FgCAaDlauAz6dWNZCkVk2gt7d3yu52u935fJ40NoUYhGJYTj79rq6uyStaMkQFp9M5ZSB5PB4GEgCg+WO9Xq/PZrNz/87q1asvuuiis88+WwSI8847bz73pkkkEmazuZ4NFWuoztbVp8k2dHr2+XyTacDv91ff1mc+tartmdZZqyYwNDQ0+e5xyun1pLEpJk8Sqw70DFEGEgCg1WO9xWKJxWJz/04ulxOTupgsV65cmUql5vMwIhA7HI6at1KEaaPROOVg+TvPoWHT89yXZJlPrWpQZ62aQ+VzFDNWnjRWrfKRbvHqmPGeUy0+REWjMJlMDCQAQIvGerfb3dfXJ/nD2Gy2UChU86+LraociZwS6Bs9PW/cuHHGQC/nWjWBQCAw21sp0tgULpdr+htdhmiFz+erHAhgIAEAWjHWp1IpMRFK+xhiTlWr1blcruZfn/uIY+Om57nPS5ZhrZpDOByeo/KksWqzBXqGaHnidnJz1IeBBABo8lgvGI3GRCIh4WMEg0Gr1drA57B007PiatUMQ5Y0xhBlIAEAMJ9YHwqFuru7pXqAYrGo1+uTyWRTTs+KqxVprNUwRBlIAIDWjfVCV1dXJBKR5AE8Hk9PT08TT8/KqhVprAUxRBlIAIDWjfWDg4MajSadTte59kQiodVqG3H7evlMz8qqFWmsBTFEGUgAgNaN9eWJM2gNBkM9H4wT078IAfF4vOmnZwXVijTWmhiiDCQAQOvGeqG/v19EgdoO8iWTSZ1OFwgEWmR6VkqtSGMtiyHKQAIAtG6sL08c5NNoNAs6MbdUKvn9fvFbjbgPjpynZ0XUijTWyhiiDCQAQOvG+vLEibldXV3d3d3zuUzewMCA0Wg0m831n8irxOlZ/rUijbU4higDCQDQurG+IhQKiQneYDD09fXFYrFsNlu5YVChUMhkMtFo1Ol06nQ6k8m0+Ef15DY9y7lWpDEwRBlIAICWjvUVqVTK7XZbLBa9Xt/R0SFmPpVKJcKB1Wr1eDxLdYkMeU7P8qwVaQwMUQYSAIBYrwDhcHjVqlXsVwDzVCqVuid4vV6qAQBQfKyPrK0cnzrrwitvemjo9ZP/+NqODddol5nWR1+V58a/vf22M985tnbz1mPlsv2mT16vP6eh2zxzrY5kkk+G7vvsPU8yphZrd79ZPvCDG059e+Fdz1OhBY1Pub+6F28gfcfjMX+822e/tv3P/uzyL//kAGMIAKDoWF8eG1jXdsv2sbHXYhuMK70vjS86sefezk899NsXH1nd+c3B43Lc+H0Pu3988NgTt7bdGh07vH1zIF0+cb6q/br+XzR2m2eoVbk8tOVGy+XntTl2MKYWb3fv3br1N9SlpvEp/1f3Ig2k7/e5z9Vodns+aerd8Tfr/tr5PzYcYggBAJQd68s7HJUp/61ta8+54+nxJelNV37CP1IuH3zE0vWd38lx4/dnMmOTW348m905vP38M89q/DZPr9Xpy7Eou/vl8tDWrS9Rl5rGp/xf3YsxkJ4olbqvvPJ+3wP+T1770H+M33JLp9NVPj0MAIDCY/2JsYPbv7biYw9OZKVfbjj3S/8ipr+xf/nSuRt+Kf8QUy5v2vSVK840Nn6bp9eKWL8Eu7tcToS/s8VxzQeXrfj0/c8epjQLGZ9KeXU3tkoOj8dsNpfLu10XfeHbD934of/a+d8+bnuQM+wBAMqP9eNUy60PPHfk1MS/bmBs4m/65214Rgk5z2zu6lFd3/htnl4rYv2SxPqRZ7fvOnj0zYPR2w2m7+6lNgsYn0p5dTewSrY22zkaTTabLZfjXz/ratdTr+R232e85H++nwP2AADlx/opkTS96crrHz5QLh/4pxuu3CTju9Gc3PJCoaBW/8W3r/h447d5tvhOrF/kWF86PPLqsfL0s00o0buOT6W8uhulVHpiWduyr/t8E9/9+72GmyJHJ/52cc4dVrudS+IAAJQc6ysfs3u7+p+O79542ae/97sX/+mvLt+4+4Rsn8H4lq/d9lY5Go1aLDcsxjbPUKuJoDD66Kq2T30/WzzBsGr87p7wq76Pf2vX0WOv/Xy94bqHshRnAeNTIa/uhvF898vvb3v/qYFU3OG85Iuhl4/suveK6x76JWfYAwAUHesfWz3xZ/vVj1X/zb782pMbrlm2zHRHdFS22//i5qsntvzqzTc7nR6PZxG2eeZa7Vx/xqkr5tlPhQU0bne/OBFg9/7oq9d+4DxtZ8/m5/NUZ2HjUwGv7kZJp588u716IJVLL//fO/9yudbw2e9ODCQ7B+wBAMqN9U3AYDAMDw+zRwHMoXLzKd/J029mxiVxAADE+iVTmYbZnQDm5jl59Zt3wQF7AACxfmn4fD6Hw8HuBDCHdDqtOXn1m3kdKeCAPQCAWL/YVq1aFQ6H2Z0AZjOf02+qccAeAECsXwy5XG7y62KxqFar83k+NAlgVvM8/WYSB+wBAMT6xdDf359MJitfx+PxlStXsi8BzGb+p99Um37AnsMHAABivcQGBgZUKlUl2btcLpHy2ZcAJqVSqcmvF3r6zaQpB+yDwWAikaC2AABivZRGRkba2toqyb6zs3NwcFAsHBoaEvleTL3sV6CVjY6O9vT0TH670NNvqk0esM/lchqNhlgPACDWS0+n04lkf/bZZ//FX/yFw+GofLtq1apSqcR+BVpZKpUS3aBywL62028mTR6wX7NmjVgnsR4AQKyXns1mazudyWQqFArsVKDFxWIx0RB6enpqO/2m+hP55YkD9l/5ylcqTYZYDwAg1kvP4/FUZ3qdTjc6OsoeBRAMBitt4e/+7u9qOP1GdBKLxaJWq/V6/cqVKz/xiU+8973vJdYDAIj1jZJMJiczvUqlGh4eZncCKE9cKavSGdrb23t7e/tPcbvd8/yDXqlUEj8vfn3KnwSJ9QAAYr30isVi5RCamHrj8Tj7EkCF0+lsm6a7u3toaGhB64nFYhqNhlgPACDWN5xWqxUTbSAQYEcCmNTT01OdxUU0r7lLjIyMrFy5klgPACDWNzzWf/GLX2QvAqh2xRVXTAZxh8NR5z2kSqWSy+WqrO0Xv/gF5QUAEOtrl8vlQqGQmJ7NZrPRaNTr9Z2dnRaL5aqrrtq6dStXvwFaxGytwOl0RiKRSisQKfzMM8+sXBqrckcLScRisY6OjvXr189zMwAAINafJplMWq1WtVpts9n8fn8ikUin09lsdnh4OB6P+3y+yX/lI7NAE5t/K+jr62tvbxc/I/ktLJ577rnbbruNjgQAINYvTCaT6enp0ev1wWBw8ubtMyoUCl6vV6vV2u12rnEJNJmFtgKNRvP5z39e8lZARwIAEOtrEY/HxaTo8Xjmnj6r5fN5l8slJt3KrSUBNAGZtAI6EgCAWF+LQCAgZtDarjgRDofF70ajUXYtoHQyaQV0JAAAsb4WsVhMp9NlMpma1zA4OCjmUY6QAYomk1ZARwIAEOtrkU6nNRpNMpmscz3hcFiv13NWK6BQMmkFdCQAALG+Rmaz2e/3S7Iql8tlt9vZwYASyaQV0JEAAMT6WsRiMaPRKNU16fL5vFar5RpzgOLIpBXQkQAAxPoamUymgYEBCVfo9XptNhv7GFAWmbQCOhIAgFhfi0wmo9PppF1noVBQq9Xc8RFQEJm0AjoSAIBYXyOPx+N0OiVfrdVqjUQi7GZAKWTSCuhIAABife2zXSMu7ezz+RoxNwNo7lZARwIAEOtrZDAY6rky9Gzi8bjFYmE3A0ohk1ZARwIAEOtrpFKpGnHK6fDwcGdnJ7sZUAqZtAI6EgCAWF/rdrQ1ZEtGRkYk/9wbgKZvBXQkAACxvkYdHR3FYlHy1abTaaPRyG4GlEImrYCOBAAg1tdIr9dns1nJV5tIJMxmM7sZUAqZtAI6EgCAWF8ji8USi8UkX63f73c4HOxmQClk0groSAAAYn2N3G53X1+f5Ku12WyhUIjdDCiFTFoBHQkAQKyvUSqVMhgM0q6zWCyq1epcLsduBpRCJq2AjgQAINbXzmg0JhIJCVcYDAatViv7GFAWmbQCOhIAgFhfo1Ao1N3dLdXaisWiXq9PJpPsY0BZZNIK6EgAAGJ97bq6uiKRiCSr8ng8PT097GBAiWTSCuhIAABifY0GBwc1Gk06na5zPYlEQqvVNuLe7wBapxXQkQAAxPraBYNBg8FQz6fKxNwpZtB4PM7eBZRLJq2AjgQAINbXrr+/X8yjtR0hSyaTOp0uEAiwawGlk0kroCMBAIj1tQsGgxqNZkFntZZKJb/fL36rETeRAdDKrYCOBAAg1tducHCwq6uru7t7PteYGxgYMBqNZrO5/rNgAdAK6EgAAGK9xEKhkJgdDQZDX19fLBbLZrPFYlEsLxQKmUwmGo06nU6dTmcymTgkBjQxmbQCOhIAgFhfl1Qq5Xa7LRaLXq/v6Ohoa2tTqVRiZrVarR6Ph+tLAC1CJq2AjgQAINZLtNFtbew5ADJpBXQkAACxvhxZ2zbhrAuvvOmhodcrCw8l7v/cpRecf/F1d27bf4JJFGh2M/aB8pFM8snQfZ+958nJn5u2RNpWMM/NmN6g6EgAAGJ9uTw2sK7tlu1jY6/FNhhXel8aX/Tr+27q33XojUM7e40XuXYT64GmN0MfKJeHttxoufy8NseOyR+btkTiVjCvzZihQdGRAADEemGHozJfvrVt7Tl3PD2+5PehjY/vqyy53D1MrAea3/Q+cPryWZZI3QrmsxkzNCg6EgCAWH9qvjwxdnD711Z87MGXqv7h6FPfvOXhfceJ9UCLxPoZ+sBSxPp5bcZpDYqOBAAg1lfmy3Gq5dYHnjvyzuLcrsfDQ3+cbaOZRIFmi/Uz9YEliPXz24zTGxQdCQBArJ9x2i6XC/uefibzpvgin88T64GWiPXT+sDSxPp5bMa0BkVHAgAQ6099Ru3t6kVH97/w8lHx/+OF3Vt+uIdYDzS9GfrAuNLoo6vaPvX9bPHELEsa8pHZd9mMGRoUHQkAQKwvP7Z64m/eqx+r+oP3yb+DjzP7XiHWA81upj5QLu9cf8apTmDf9taMS6RtBfPbjBkaFB0JAECsr3WjmUQBcDsqAACI9QCI9XQkAACxnkkUAK2AjgQAINYziQIg1gMAQKxnzwEg1gMAQKwHQKynIwEAiPVMogBoBXQkAACxnkkUALEeAABiPQBiPbEeAABiPQBiPR0JAECsZxIFQCugIwEAiPVMogCI9QAAEOsBEOvZDAAAiPUAiPV0JAAAsZ5JFACtgI4EACDWM4kCINYDAECsB0CsZzMAACDWAyDW05EAAMR6JlEAxHo6EgCAWM8kCoBYDwAAsR4AsZ7NAACAWA+AWE9HAgAQ65lEARDr2RcAAGI9kygAYj0AAMR6AMR6NgMAwLSoiK3M5XLhcHjGSTQWiyUSCXYk0Apk0groSAAAYn3tenp6zGZzKpWanERHRkZsNptOpyuVSuxIoEXIpBXQkQAAxPoaiemzfYLT6RSTqNfrVavVlS/Yi0DrkEkroCMBAIj1tbPb7W2n02q1xWKRvQi0FJm0AjoSAIBYX6NMJtPe3l49iXJgDGhBMmkFdCQAALG+dtWHx9RqdaFQYBcCLUgmrYCOBAAg1tcom812dHRUJtH+/n72H9CaZNIK6EgAAGJ97Xp7eysHxvL5PPsPaFkyaQV0JAAAsb5Go6OjYhLduHEjOw9oZTJpBXQkAACxvo6NbmsTUyk7D2j1/iWPVkBHAgAQ6xcwa86NHQm0SI6XQyugIwEAiPVMogCI9QAAEOuZRAFiPbEeAABiPQBiPR0JAECsJ9YDINbTkQAAxHomUQDEegAAiPVMogCxnlgPAACxHgCxno4EACDWE+sBEOvpSAAAYj2TKABiPQAAxHomUYBYT6wHAIBYD4BYT0cCABDrifUAiPV0JAAAsZ5JFACxHgAAYj2TKECsJ9YDAECsB0CspyMBAIj1xHoAxHo6EgCAWM8kCoBYDwAAsZ5JFCDWE+sBACDWAyDW05EAAMR6Yj0AYj0dCQBArGcSBUCsBwCAWM8kChDrifUAABDrARDr6UgAAGI9sR4AsZ6OBAAg1jOJAiDWAwBArGcSBYj1xHoAAIj1AIj1dCQAALGeWA+AWE9HAgAQ65lEARDrAQAg1jOJAsR6Yj0AAIqJ9dPnVPYcAJm0AjoSAIBY/67e3n7bme8cAbt56zGx7EhGfHnfZ+95kr0HtIqpreDN8ujDnzr1bef9v1m6dpR8MiS+e6cdvbZjwzXaZab10VfZawAAYv079j3s/vHBY0/c2nZrdOzw9s2BvWLZ0BYxiZ7X5tjB3gNaxdRWkC7/2+Pf3z1+mPyt3z6z6w9L2I5utFwuNuNUOzqx597OTz302xcfWd35zcHj7DcAALH+lP2ZzFi5vMMxEeKPZ7OvVDa6rc1BrAdayNRW8HL59ddfH28Fr/xix2//tJTtSCypivXpTVd+wj9SLh98xNL1nd+x3wAAxPrT7ZgS4on1QEuaoRU8/tOXlnYbTo/1v9xw7pf+RYT/sX/50rkbfskeAwAQ64n1AObTCnx7l3gbpsX6dQPjsX5g3XkbnmGPAQCI9cR6AO/WCo6KVhB9W1axPr3pyusfPlAuH/inG67clGaPAQCI9acZG1jXtnbbW6fF+lVtn/p+tniCHQi0jqmtYI9oBTuXuh2VRh8Vm3GqHR3fvfGyT3/vdy/+019dvnE3DQoAQKyv9uLmqycuJ3f15hcrC3aun7zEnL16dgXQzKa1gvKQ+O5XS92OzpjSjl57csM1y5aZ7oiOsssAAMT6d91obv4CgNtRAQBArAdArKcjAQCI9UyiAGgFdCQAALGeSRQAsR4AAGI9ew4AsR4AAGI9AGI9HQkAQKxnEgVAK6AjAQCI9UyiAIj1AAAQ6wEQ64n1AAAQ6wEQ6+lIAABiPZMoAFoBHQkAQKxnEgVArAcAgFgPgFjPZgAAQKwHQKynIwEAiPVMogBoBXQkAACxnkkUALEeAABiPQBiPZsBAACxHgCxno4EACDWM4kCINbTkQAAxHomUQDEegAAiPUAiPVsBgAAxHoAxHo6EgCAWM8kCoBYz74AABDrmUQBEOsBACDWAyDWsxkAAKZFRWyl3+8fGRmZPonmcjmfz8deBFqETFoBHQkAQKyvUSKRUKlUXq+3VCpVJlHxhZg+1Wr1wMAAexFoETJpBXQkAACxvnZms1nMnZ2dnclksvKF+G9XVxe7EGgpMmkFdCQAALG+RolEom0aDowBrUYmrYCOBAAg1teucnhsEgfGgNYkk1ZARwIAEOtrNDAwUD2JJhIJ9h/QgmTSCuhIAABife26uroqM6jZbGbnAS1LJq2AjgQAINbXaPLwGAfGgFYmk1ZARwIAEOtrVzk8xp4DWpxMWgEdCQBArK9R5fAYew5ocTJpBXQkAACxfgFyuVwoFHI4HGaz2Wg06nS6zs5Oi8XidDojkUihUGBHAq1AJq2AjgQAINYvWDKZtFqtarXaZrP5/f5EIpFOp7PZ7PDwcDwe9/l8k/8qlrA7gWYlk1ZARwIAEOsXLJPJ9PT06PX6YDBYLBbn+MlCoeD1erVard1uHx0dZacCzUQmrYCOBAAg1tciHo+LSdHj8cw9fVbL5/Mul0tMuqlUiv0KNAeZtAI6EgCAWF+LQCAgZtDaLhgXDofF70ajUXYtoHQyaQV0JAAAsb4WsVhMp9NlMpma1zA4OCjmUY6QAYomk1ZARwIAEOtrkU6nNRpNMpmscz3hcFiv13NWK6BQMmkFdCQAALG+Rmaz2e/3S7Iql8tlt9vZwYASyaQV0JEAAMT6WsRiMaPRWCqVJFlbPp/XarVcYw5QHJm0AjoSAIBYXyOTyTQwMCDhCr1er81mYx8DyiKTVkBHAgAQ62uRyWR0Op206ywUCmq1mjs+Agoik1ZARwIAEOtr5PF4nE6n5Ku1Wq2RSITdDCiFTFoBHQkAQKyvfbZrxKWdfT5fI+ZmAM3dCuhIAABifY0MBkM9V4aeTTwet1gs7GZAKWTSCuhIAABifY1UKlUjTjkdHh7u7OxkNwNKIZNWQEcCABDra92OtoZsycjIiOSfewPQ9K2AjgQAINbXqKOjo1gsSr7adDptNBrZzYBSyKQV0JEAAMT6Gun1+mw2K/lqE4mE2WxmNwNKIZNWQEcCABDra2SxWGKxmOSr9fv9DoeD3QwohUxaAR0JAECsr5Hb7e7r65N8tTabLRQKsZsBpZBJK6AjAQCI9TVKpVIGg0HadRaLRbVancvl2M2AUsikFdCRAADE+toZjcZEIiHhCoPBoNVqZR8DyiKTVkBHAgAQ62sUCoW6u7ulWluxWNTr9clkkn0MKItMWgEdCQBArK9dV1dXJBKRZFUej6enp4cdDCiRTFoBHQkAQKyv0eDgoEajSafTda4nkUhotdpG3PsdQOu0AjoSAIBYX7tgMGgwGOr5VJmYO8UMGo/H2buAcsmkFdCRAADE+tr19/eLebS2I2TJZFKn0wUCAXYtoHQyaQV0JAAAsb52wWBQo9Es6KzWUqnk9/vFbzXiJjIAWrkV0JEAAMT62g0ODnZ1dXV3d8/nGnM//elPzzzzzJUrV9Z/FiwA5baCgYEBo9FoNpslbwUy2QwAAJQX6ytCoZCYHQ0GQ19fXywWy2azxWJRLC8UCplMJhqNOp1OnU5nMpmsVqvL5WKPAk1p/q2goUfHZbIZAAAoL9ZXpFIpt9ttsVj0en1HR0dbW5tKpRIzq4jyHo+ncn2J0dFRjUbDtSaAJjafVtA6mwEAC5XL5UKhkMPhMJvNRqNRNLHOzk7RzZxOZyQSKRQKi5Q+301LVaPlYv08iYl2zZo1vGiBVjks0dbGZgDAfCSTSavVqlarbTab3+9PJBLpdDqbzQ4PD8fjcZ/PN/mvYknTx3pZVaN5Yn1kbWX3nXXhlTc9NPT6xLKxvT+5/bqLz1t22ec9u/ILWluxWNTpdNzHEVCWmfpAuXwkk3wydN9n73ny5PczdAZpW//8NuPAD244Ne1ceNfzxHoAspfJZHp6evR6fTAYrJw3OJtCoeD1erVard1uHx0dbcpYL8NqNE+sL48NrGu7ZfvY2GuxDcaV3pfGFz1/19W9T71x9MC2ry6/ctNCP24m7f3eASxRHyiXh7bcaLn8vDbHjpM/NENnkLj1z2sz9m7d+pvp8xP7EIA8xeNxEUw9Hs/cEbZaPp93uVwi+KZSqSaL9fKsRhPF+vIOR2W+fGvb2nPueHpiaj2UPfim+P+xn9186mDYgphMJhHueSUDyjG9D5y+fJbOIHXrn89mDG3d+hKxHoAiBAIBkWLnc/2u6cLhsPjdaDTaNLFettVoulh/Yuzg9q+t+NiDp2bLE2OFA7u3OL70SLq08DUmk0nxpmr+78MAyLIPTMnTM3SGhsT6d9mMRPg7WxzXfHDZik/f/+xhYj0A2YrFYjqdrp4P8Q8ODoos24ij1Isf6+VcjSaL9eNUy60PPHekamH7ii88uOvQ8dpWarPZ3G43L2lAObF+eh+YHuundoYGxPp33YyRZ7fvOnj0zYPR2w2m7+4l1gOQpXQ6rdFo6v+0YTgc1uv1kp9ZvsixXubVaLJYXz1tC3/6w8HRo2/lszvvvuYT38vWtFLxbky8o1LK5xsAYv20PjB9+QydoVEn4cy1vHR45NVj5dNO1CHWA5Abs9ns9/slWZXL5bLb7YqO9TKvRhPF+spn1N6uXjR491V3xgvFI0Pf/ujybw7VuuK+vj6Hw8ELG1CAGfrARIIefXRV26e+ny2emKUzNOQjs++yGb/q+/i3dh099trP1xuue6gx7y4AoC6xWMxoNJZKJUnWls/ntVqttNd5XMxYL/9qNE+sf2z1xN5b/VjVH7zHXgh+2aQ9d1nnqr+PjzZr3QHM2QfK5Z3rzzjV3+3b3pqxM0jb+ue5GXt/9NVrP3CetrNn8/MNuc4mANTJZDINDAxIuEKv12uz2RQa6+VfjeaJ9Q3l8/ksFgsvb6BZcTsqAJgik8nodDpp11koFNRq9YLuujoyMrI4sT4QCOTzeZlXg1gvgVKpZDQaY7EYL3KAWE+sB9AKPB6P0+mUfLVWqzUSicz/591ut8PhmO1TjhLGerFVImT39/fPGO5lUg1ivTSi0aiEJ1QBINYT6wHImUicjbi8us/nW1A+LhaLOp2uo6Ojt7d3eriX9iQc8ZTFr8wY7mVSDWK9ZCwWi1QffwZArCfWA5Azg8FQz9XZZxOPxxd6YnMoFKpk9OmBW9pYL56veP9Q/Vi5XE5u1SDWSyOVSmm12jnOuwJArCfWA2gOKpWqEad9Dw8Pd3Z2LvS3Vq5cOZnUReD2eDyVu4VK/pFZt9td/euTfyWQVTWI9dJwOBwul4uXOkCsJ9YDoDHWYM+ePW3K1IhqjIyMSP5JXGL9fIm3axqNphF/hQFAnibWA5CPjo6OyhFxaaXTaaPRuNDfWrduXXXC1mq1Xq+3UChIm8VLpVJXV1f1owQCgcrnKmVVDWK9ZNxu95o1a3i1A8R6Yj2AJqbX67PZrOSrTSQSZrN5Qb8Sj8cno7bBYPD7/ZMJW9pYL9Zc/bahOsfLpxrEeilVPpGdTCZ5wQPEemI9gGZlsVgacWlvEZ0dDseCcpeI8qI9dnZ2BoPBKdcklDDW53I5tVo9PdDLqhrEeumFQqHu7u7qJUNDQ414DweAWA8AS8Ltdvf19Um+WpvNJnLU/H9+48aNXV1ds93eVcJY39/fP2Ogl1U1iPUNYTKZqneD2Wzm+D2gICMjI9XHXapbfyQSEW/UW2ozAGC6VCplMBikXacIzWq1evKqke+qVCrNna8kjPVznzovh2oQ6xtFDDK9Xl8ZAWL2FeMmkUjQAgAFEe/GrVZrOp2ezNPZbHbVqlWicS/mjedkshkAMJ3RaJQ23gSDQdHxpEyfi3j5GvlXg1hfO5vN5na7xbxbOeUrHA7z+gcUJJVKiVdue3v7+vXrxRcej0elUokvRJ9twc0AgOmmn3Vcj2KxqNfrpT27YTFjvfyrQaxfmHw+n81mK3ekymQyWq3229/+dmXcMAcDitPT0zNlAtDpdIt/jFwmmwEA03V1dUUiEUlW5fF4RLuTOH0u7sXmZV4NYv3CFAqFyhG16bxeLy9+QFlSqVR7e/uSv5BlshkAMN3Q0JBGo6mcKFiPRCKh1Wolv77IIsd6mVeDWF/jztDr9VPGTX9/Py9+QHHsdnv1nUcacbcRBW0GAEwXDAYNBkM9n+ysnOAQj8elT5+LfmtYOVeDWF+j6YftG3HZIwCNJtrr5JHyTZs2tfhmAMCM+vv7RZat7Sh1MpnU6XSBQKAh6XPRY72cq0Gsr0sikbj44osr48Zut/OyB5TI6XSKl7Bara58bKbFNwMAZhQMBjUazYLOLC+VSn6/X/xWI27ktISxXrbVINbXq1AorFq1SoybtWvX8poHlGh0dFQO59HJZDMAYDaDg4NdXV3d3d3zuc7jwMCA0Wg0m831n4kuw1gvz2oQ66Vx1VVXXXvttbzgAYUSrV+kajYDAN5VKBQSCdVgMPT19cVisWw2W/k4UKFQyGQy0WjU6XTqdDqTybQIh6WXMNbLsBrEegWPpBnlcjkxwhwOh3hHKMaZXq/v7Oy0WCxiVEUiETHI6Ecy34NKpMRRJ5O9r8RBSJMBUJ64hJfb7RavfdEEzjjjDNGvVCqVSLdWq9Xj8YhE21JdtLoaHR0dS1UNYn3zzMfJZFKMHrVabbPZ/H5/IpFIp9PiXePw8HA8Hvf5fJP/KpbQj4j1LT7qiPU0GQBSqdx8gzpU93bFPwVC4VLNx+JdoHhFiTeIwWBw7uviFQoFr9er1Wrtdjt/6yfWt/KoI9bTZABMF1lb6T1nXXjlTQ8NvV5ZeChx/+cuveD8i6+7c9v+E+MLToxE+25Ycf75y6+/6+cHfjM8XPmdRbxi49vbbzvznUZ589ZjM2zkhNcTd17ytzsaW41y/vnvfu4S7UXdX4/sLxHrCYV1Ea8iMYN6PJ75X+g6n8+7XC4xQ6dSKWI9sb41Rx2xniYDYAZjA+vabtk+NvZabINxpfel8UW/vu+m/l2H3ji0s9d4kWv3+JLdrosu+8Zz+fwzd3/44m+sOnXbja6ursXayn0Pu3988NgTt7bdGh07vH1zID3DRgp//Nc7Lmlrc+xobDWy//iXKzb86+H//MWGK78SPUasJxTWLBAIiOl2Ph/Bni4cDovfjUajxHpifQuOOmI9TQbATHY4Kjn4rW1rz7nj6fElvw9tfHxfZcnl7okT7H77wEc++chB8Q7+x//90r73Vt0ke2BgYFE2cn8mMza5qcez2Zdn2Mhyfuf6lTev+UQ9sX5e1YjffvbNPzs2sWTFxn8j1hMKaxOLxXQ6XT2fwxgcHBSTbsseTiPWt/KoI9bTZADMGmRPjB3c/rUVH3vwpap/OPrUN295eN/xia/fSG35wme+7v6W62Or11W3rEU8YF+VuWfcyCO/uOs23wvHZvgZqavx6/su+ci9u46MPHX31WffHifWEwprkE6nNRpNMpmscz3hcFiv17fmKbDE+lYedcR6mgyAWYLsONVy6wPPHXlncW7X4+GhP5785k/7Al++O7r3sb/9y/f82XundK3FOmA/U6x/ZyOPxLf8YM/rM0d/qatxfO8PbzIu+9Df/O97V3G0nlBYG7PZ7Pf7JVmVy+VqzVvkEutbedQR62kyAOaVlYXCvqefybxZnvjczPj3u10XrYm8WbavNYs29RdqtegV4guDwbC4B+xP39SqjTxyKo6for3nucZV49R7nefuufjzj/+BWE8oXKhYLGY0GkulkiRrE8NSq9W24AXpiPWtPOqI9TQZADOofEj07epFR/e/8PJR8f/jhd1bfrhnfMm/32u4zPGjofb3/tk551z+rxN/ixP9qlgsut3ujo6ORTpgP76pa7e9NdtGjjv+ZuSLbTdHjh5vZDX+c3Br/KXXX3zE9qG1kSNlYj2hcKFMJpO0rxmv12uz2diDxPrWGXXEepoMgOkeWz3RelY/VnXGSdWRb7PvlYlFh57q//AFZ59zoekbO1+dEmSz2awI91IdFJjdi5uvntikqze/OMtGllP3f/jkousfPtC4amT/z82Xnvu+5df3PXHgeJlY31qhMJ/P13lh10wmo9PppH0uhUJBrVbPdntIsc2LeKqcAvZgC17ZY/FHnZgSGnoJ5BaP9aFQ6PS/Hi/x7gbQBFMqRWimahDr32U+FpNof3+/RqOp86IQHo/H6XRK/nSsVmskEpmycHR0tK+vT0zGg4OD7MHKHmzWashn1BWLxWAwaDAYGvpmssVjfSwWU6lUvb29M36SdTF3NwCCLNUg1ispFE7GQbGw/slSTI2NOFrs8/mqt01M9mLK7+joENvscDhafA+KoOn1eit7sFmrIYdRV6mzVqsVdV61alVT5mn5bEblZu/iNT493C/O7gZAkKUaxHolhcLqQC9oNJo5/vA9TwaDoZ7LSM8mHo9bLJYpgV6qbVbuHqwOmoLYlblcrgU7VKNHnRhj1XVWqVTZbJZY39DNEBUWda48ypRw3+jdDYAgSzWI9QoLhdUxpSIQCNT/uGImbsT5qcPDw5dcckl1oJdwm5tmD0p1vT/Fadyou/TSS6vf+lZs2rSpifO0fDZD1Ln6sSbDfeN2d2dnJ/M9QJClGsR65YXCxmnE09mzZ08bwKiTWaxvpqc/MjIi+SdxARBkqQaxfjHm40wmY7fb29vbJ5esWbOm/sft6OgoFouSP510Om00GqecNST09PSwByeXrFu3rjU7VENHXeW8r+o6L8IHGDhaXyqVRPEnH8hgMASDwco16Rq6u5nvAYIs1SDWKy8UVn5sZGSk+syW+q/Zp9frG3HacSKRMJvNla+nhPuGXmdQ/ntwSrhPJpMt2KEWYdRV11n8d2hoiFjf0M3wer3TA/2i7W4ABFmqQaxXXiismPwcqphB6zwMZrFYYrGY5E/H7/dPOUQ6Ge4lvNmkcvfgZOjs7OxsymrIZNRV6iyKv3LlSmJ94zZDdCTx0p4e6Bd5dwMgyFINYr3yQmF1uPd4PPU8rtvt7uvrk/zp2Gy2UCg02zZ7vV72YCV0Op3OpqyGrEZdKpXq6emZ8Z+I9ZIQe9Pn8832BnWRdzcAgizVINYrLxRW1Hm9SJF4DAaDtM+lWCzOfenGprw3ZM17sAXvlLkko27GOyUR66Uqvtx2NwCCLNUg1isvFNbPaDQmEgkJVxgMBq1WK3twSYKdUjTZqOPcepoMAIIs1SDWL/18HAqFuru7pVpbsVjU6/Ut+ElQYn0rjzpiPU0GAEGWahDrZTEfd3V1RSIRSVbl8Xia+CqWxHpGHbGe3Q2AIEs1iPXynY8HBwc1Gk06na5zPYlEQqvVNuJG8ezB5tNMo45Yv8i7uxFXzARAkKUaxPommY+DwaDBYKjnI2giV4nptlkvS0+sZ9QR69ndAAiyVINYr4z5uL+/X0y6tR1OSyaTOp0uEAi08quOWN+yo45YT5MBQJClGsR6ec3HwWBQo9Es6BTYUqnk9/vFbzXijjPswVbQBKOOWE+TAUCQpRrEetnNx4ODg11dXd3d3fO5IN3AwIDRaDSbzfWfMssebGVKH3XEepoMAIIs1SDWy3Q+DoVCYio1GAx9fX2xWCybzVbuOFMoFDKZTDQadTqdOp3OZDJx/IxYz6gj1tNkABBkqQaxXtbzcSqVcrvdFotFr9d3dHSIzVCpVGIatlqtHo+nNa94Q6xn1BHraTIACLJUg1g/Lz09PZs2bWIcA2D2AkAroBrEeqV4e/ttZ75zMO3mrT+Px5d/4LzPGjXnX3zdndv2n2jMo0bWVh7vrAuvvOmhodff+YfXE3de8rc7eA3VsQePlcv557/7uUu0F3V/PbK/RIHmGnJHMsknQ/d99p4nq39USYNw6t5/s3xiJNp3w4rzz19+/V0/P3BiiUbgtMIe+MENp37gwrueX6LdfShx/+cuveC0zjZtADCXA6AVEOuVa9/D7h8fPPbErW23RscOb9v0T/+t03DTyjW7Dr1xaGev8SLX7gY97NjAurZbto+NvRbbYFzpfenk0j/+6x2XtLU5iPU178HtmwPpcvYf/3LFhn89/J+/2HDlV6LHqNAcQ25oy42Wy887bcgpaxBO3/u7XRdd9o3n8vln7v7wxd/YsxTbsHeGwu7duvU3S727f33fTf1TO9u0AcBcDoBWQKxXrv2ZzFi5vMMxMbFt+V//a6Xl/wttfHyf+Je3tq293D3cqMc9+Yjjj3LOHU9PLMrvXL/y5jWfINbXsQePZ7Mvl+O3n33zz45N1HbFxn+jQrMPudOWK3IQTt/7v33gI5985KB4Jj++ses7v1uKbXhlhsIObd360lLv7t/P0tlOGwDM5QBoBcT6Zkg84Vyu+ubqR5/65i0P7zve0En3xNjB7V9b8bEHxyf8I7+46zbfC8dOm2Kx4BAz7tf3XfKRe3cdGXnq7qvPvp37Yc465KaXTqmD8LQNfiO15Quf+br7W65H/t/RpdqGaUsS4e9scVzzwWUrPn3/s4eXdHdP72zEegDEemJ90yWezzid69evP7kgt+vx8NAfG/uI41TLrQ88d0TkqfiWH+x5fcZwgIWGquN7f3iTcdmH/uZ/37uKo/WzDrnppVPuIKze4D/tC3z57uje+N2f+utHM8eXZhumLxl5dvuug0ffPBi93WD67t4l3N0zdDZiPQBiPbG+uRLPX7f99blabT6fH/+usO/pZzJvii9Ofr8IIeDkHHyK9p7neB3VGarKf3runos///gfqM3sJTp9uXIHYfVT2+26aE1EvHrf+KmtcZ+NWXCsLx0eeXX8Yx5Tz4Ba3N09c2cj1gMg1hPrm8nYwPvb3u/0+Se+Obr/hZfH/3h/vLB7yw/3NOwRxz/Q9vbUxcffjHyx7ebI0eO8ihZez7Xb3qp885+DW+Mvvf7iI7YPrY0coTZzD7nS6KOr2j71/WzxhHIH4Wl7/9/vNVx21y8P55+9x3jJfb9emm2YXthf9X38W7uOHnvt5+sN1z2UXZrdPXNnmzIAmMsB0AqI9Yr24toVE0cnTZteHP+26pil2fdKYx7ysdUT61/92GmpM3X/h08+8PUPH+B1tIA9uPnqibJdvXliD2b/z82Xnvu+5df3PXGA90dzD7md6884NdjtlUyqvEE4Ze+XDz3V/5kPX3D+ik9+Y+erS7UN0wo7tvdHX732A+dpO3s2P59fot09U2ebNgCYywHQCoj1ClYsFvV6fSKRYOACYPaiCABoBcR6pXK73WvWrGHUAgBzOQBaAbFeqUZGRtRqdTabZdQCAHM5AFoBsV6p1qxZ09/fz5AFAOZyALQCYr1SJZNJnU5XLBYZsgDAXA6AVkCsV6RSqWQymcLhMOMVAJjLAdAKiPVKFQgEVq5cyWAFAOZyALQCYr1S5fN5rVabSqUYrADAXA6AVkCsV6q+vj6Hw8FIBQDmcgC0AmK9UqXTaY1Gk8vlGKkAwFwOgFZArFeGUqk0ZYnVavV6vQxTABgZGYnFYjPOXpFIZGhoiBIBBFmqQayXi2QyWX0OfTQaNRqN07M+ALQms9lstVrT6fTk7JXNZletWmUwGGiVAEEWxHoZSSQSYtKqfC2mKDFRVR+aAoAWl0qlxKTV3t6+fv168YXH41GpVOKLYDBIcQCCLIj1MiJmJrE/IpGI+HrTpk2rVq1igAJAtZ6enrbT6XQ6DtUDBFkQ6+UY6/V6/f79+7VabSaTYYACQLVUKtXe3l4d6/kAEkCQBbFednw+X2WWuuKKK772ta+J2StxSj6fZ7ACgGC32yczvVarLRaL1AQgyIJYLy/9/f1t06jVak4bBYBJmUxm8oD9pk2bKAhAkAWxXgGx3mw2j4yMMEwBoJrT6awc9eAvmQBBliIQ6+U7UVWoVCqfz8cABYDpRkdHRZ/s7++nFABBliIQ6+Vo7dq1lUzf3d2dzWYZnQAwx+zFHbgBEOuJ9UtATD+hUMjhcJjNZqPRqNfrOzs7LRaL0+mMRCKFQkH8zBVXXPHe977X4/FwsTYAmD5dzY0SAQRZqkGsb6xkMmm1WtVqtc1m8/v9iUQinU5ns9nh4eF4PO7z+Sr/2tPTc9ZZZ4kfZlACALEeALGeWC8jmUxGhHW9Xh8MBue+BFuhUPB6vVqt1m63j46OMi4BgFgPgFhPrJeFeDwuYrrH45n/NZXz+bzL5RJvA1KpFEMTAIj1AIj1xPolFggERKZPJBI1/G44HBa/G41GGZ0AQKwHQKwn1i+ZWCym0+kymUzNaxgcHBTJnmP2AECsB0CsJ9YvjXQ6rdFo6v/kazgc1uv1nGcPAMR6AMR6Yv0SMJvNfr9fklW5XC673c4YBQBiPQBiPbF+UcViMaPRKNVV5/P5vFarHR4eZpgCALEeALGeWL94TCbTwMCAhCv0er02m41hCgDEegDEemL9IslkMjqdTtp1FgoFtVpduQctABDrifUAiPXE+obzeDxOp1Py1Vqt1kgkwkgFwHRFrAdArCfWLwaRvxtxsXmfz9eIdwsAQKwHQJClGsT6GRgMhnquVT+beDxusVgYqQCYroj1AIj1xPrFoFKpGnES/PDwcGdnJyMVANMVsR4AsZ5Yr+BSjoyMSP5JXAAg1gMgyFINYv3MOjo6isWi5KtNp9NGo5GRCoDpilgPgFhPrF8Mer0+m81KvtpEImE2mxmpAJiuiPUAiPXE+sVgsVhisZjkq/X7/Q6Hg5EKgOmKWA+AWE+sXwxut7uvr0/y1dpstlAoxEgFwHRFrAdArCfWL4ZUKmUwGKRdZ7FYVKvVuVyOkQqA6YpYD4BYT6xfJEajMZFISLjCYDBotVoZpgBArAdArCfWL55QKNTd3S3V2orFol6vTyaTDFMAINYDINYT6xdVV1dXJBKRZFUej6enp4cxCgDEegDEemL9YhscHNRoNOl0us71JBIJrVabyWQYowBArAdArCfWL4FgMGgwGOr5nKtI8yLTx+NxBigAEOsBEOuJ9Uumv79fJPvajtknk0mdThcIBBidAECsB0CsJ9YvsWAwqNFoFnSefalU8vv94rcacVsrACDWAyDIUg1ifS0GBwe7urq6u7vnc9XLgYEBo9FoNpvrPy8fAIj1AAiyVINYL7FQKCTyusFg6Ovri8Vi2Wy2WCyK5YVCIZPJRKNRp9Op0+lMJhMH6QGAWA+AWE+sl7VUKuV2uy0Wi16v7+joEHVXqVQi61utVo/HwxVvAIBYD4BYT6yn7gDA7AWAVkA1iPV1iKytHCc668Irb3po6PWJZQd+cMOpw0cX3vU8oxAAavT29tvOfOeA/M1bj4llRzLJJ0Piuyff+amXIr3XL3/feR9xRA5QM4AgSzWI9TUaG1jXdsv2sbHXYhuMK70vjS/au3XrbxiFAFC3fQ+7f3zw2BO3tt0aHTu8fXNgr1g2tOVGy+Wii+449UOvBlebenccOPofvwg9d4iaAQRZqkGsr9UOR5tjfHZ5a9vac+54enzJ0NatLzEKAaBu+zOZsck2ezybfeVU462K9Qf9n7z2of+gVgBBlmoQ6yWJ9SfGDm7/2oqPPTgR5xPh72xxXPPBZSs+ff+zhxmFACBBmz19SVWs3+266AvffujGD/3Xzlt/kj1BtQCCbMvI5/OBQKBUKk2vxuDgYDQaJdbXMN+MUy23PvDckYklI89u33Xw6JsHo7cbTN/dyygEgAbG+vjXz7ra9dQrud33XdF5/2+oFkCsbyV2u91kMokQP1mNXC7ncDjUarUI/cT6+ueb0uGRV8c/1/XOaTmMQgBoUKz/93sNN0WOlstj//KlWVouAGJ9s8pkMu3t7aIO69atE/8NBAIi0Isv+vv7FblDl/jxKx+Zfbt60a/6Pv6tXUePvfbz9YbrHsoyCgGg3ja7dttb7ywojT4quuj3s8WJU26KO5yXfDH08pFd914xS8sFQKxvYr29vVPu46HQQ/VLH+sfWz1Rv9WPHamagvb+6KvXfuA8bWfP5ufzjEIAqMOLm6+eaLNXb36xsmDn+jNOTV32ibBfevn/3vmXy7WGz373+Tz1Aoj1rWZ0dLRyq9NJCj1UX+Z2VADAXA6AVtDKqg/YK/dQPbEeAJjLAdAKWlr1AXvlHqon1gMAczkAWkGrqxywV6lUyj1UT6wHAOZyALSCVjc6OiqqIcK9sncooxAAmMsB0Aqohgj3xHpGIQDQRQEo4LU/N6qh6GoQ6wGAWA+AIEusJ9YzIQEAXRQAQZZqEOuZkACALgqAIEs1iPUAALooAGI9sZ4JCQCanc/nGxkZmd5Fc7mc3++nPgBBllhPrCfWA4ACJBIJlUq1adOmUqlU6aLiCxHo1Wr1wMAA9QEIssR6Yj2xHgCUwWw2i+ZpNBrj8bj4wmQyif92dXVRGYAgS6wn1hPrAUAxEonE9EmLQ/UAQZZYT6wn1gOAwlQO2E/iUD1ArCfWE+uJ9QCgPFMO2HOoHiDWE+uJ9cR6AFCkyQP2HKoHiPXEemI9sR4AlGrygD2H6gFiPbGeWE+sBwAFqxywpw4AsZ5YT6wn1gOAgkWjUbooQKwn1hPrifUAoDy5XC4UCjkcDrPZbDQadTpdZ2enxWJxOp2RSKRQKFAigCBLrCfWE+sBQL6SyaTValWr1Tabze/3JxKJdDqdzWaHh4fj8bjP55v8V7GEcgEEWapBrCfWA4C8ZDKZnp4evV4fDAaLxeIcP1koFLxer1artdvto6OjlA4gyFINYj2xHgBkIR6Pi5ju8XjmDvTV8vm8y+USbwNSqRQFBAiyVINYT6wHgCUWCAREpk8kEjX8bjgcFr8bjUYpI0CQpRrEeunlcjkx08wY62OxWG1TFwA0JdEVdTpdJpOpeQ2Dg4Mi2XPMHiDIUg1ifUP09PSYzebKNFMp9MjIiM1mE7NXqVTihQoAQjqd1mg0yWSyzvWEw2G9Xs959gBBlmoQ66UnAn37BKfTKQrt9XrVanXlC16lAFBhNpv9fr8kq3K5XHa7nZICBFmqQayXnphgppRbq9XO/9NgANDcYrGY0WiU6g+Y+Xxe9FiuegkQZKkGsV56mUymvb29utwcqgeASSaTaWBgQMIVih5rs9koLECQpRrEeulVH7BXq9XcGREAKjKZjE6nk3adosfSaQGCLNUg1jdENpvt6Oio1Lq/v5/XJwBUeDwep9Mp+WqtVmskEqG8AEGWahDrpdfb21s5VJ/P53l9AsBk/m7ExeZ9Pl8j3i0AIMhSDWJ9eXR0VBR648aNvDgBYJLBYKjnWvWzicfjFouF8gIEWapBrG/UbuBqygBQTaVSNeIk+OHh4c7OTsoLEGSpBrGeugPAIvXJRqx2ZGRE8k/iQrnzYC6XC4VCDofDbDYbjUa9Xi/e9VksFqfTGYlE5PnpaiIE1SDWU3cAUJKOjo5G3McjnU6L9EZ5mQeTyaTValWr1Tabze/3JxIJMTay2ezw8HA8Hvf5fJP/Krd7HRAhZlP5sCIvrkYfHCHW85oEgIXR6/UiY0m+WpHezGYz5W3leTCTyfT09IgBFgwG537rWCgUvF6vVqu12+3yOVeWCFEuv739tjPfecI3bz1WLg//7J4/e897xHervvHIifGfGdv7k9uvu/i8ZZd93rMr32rVOJS4/3OXXiC+u3Pb/olqHPjBDad+4MK7nifW85oEgMVksVhisZjkq/X7/Q6Hg/K27DwYj8dFTPd4PPP/W1A+n3e5XOJtQCqVIkLIw76H3T8+eOyJW9tujY4d3r45kC7/+qOXdFeefscZ7989/jPP33V171NvHD2w7avLr9yUbrFq3HdT/65Db4hqGC9yTVRj79atv1Fko6CdAUATcLvdfX19kq/WZrOFQiHK25rzYCAQEJk+kUjU8LvhcFj8biMuukqEWLj9mcxYubzD0ebYUS4fz2b/bXTwv7T/l8kKPDR+d+qxQ9mDb4qfPfazmxV1fLr+arxc/n1o4+P7JobK2svdE+eQDW3d+hKxntckACyNVCplMBikXWexWFSr1blcjvK24DwYi8V0Ol09V00dHBwUyX7Jj9kTIU45GWQFh8NRXYGurq6JxSfGCgd2b3F86ZF0qZWqUT1Ubnl43/HxLxPh72xxXPPBZSs+ff+zh4n1vCYBYLEZjcbaDqzOJhgMWq1WCtuC82A6ndZoNMlkss71hMNhvV6/tOfZEyGmBFnxVq29vX1KEQbGD9iLH2hf8YUHdx063lJvck7K7RJ1+OPJb0ae3b7r4NE3D0ZvN5i+u5dYz2sSABZZKBTq7u6Wam3FYlEEsvqDHZQ4D5rNZr/fL8mqXC6X3W4nQsgnyIrdIZ616uw//9uv3iW+0F144cQB+yv+cHD06Fv57M67r/nE97KtFusL+55+JjM+GPL5ic8Llw6PvHpM/P+tbWvPueNpYj2vSQBYfF1dXZFIRJJVeTyenp4eStqC82AsFjMajaWSNCdiiJik1WqX8KqXRIiTxgbWta39/gvjh+rXrLENPr3r6ERxfunx3+Jytbe/9/MrVsULxSND3/7o8m8OtUY1tr1V+ebo/hderlRj95Yf7hlf8qu+j39r19Fjr/18veG6hxT0JodYDwDNY3BwUKPRpNP1XscikUiIKNaIK2ZC/vOgyWSaOCVDMl6v12azESGW1Iubr554trrPBOPxiWPVp5h9r4yfdvWbL3+606Q9d1nnqr+Pj7ZKNa7e/OL4t1OrMX65zx999doPnKft7Nn8vJIu90msB4CmEgwGDQZDPZ9zffTRR8V7g/j43I8mnAcDgcDJEw1mkslkJL+vcKFQUKvVjbsH7dyjnQgxd3Gqv5XqTzTNUQ1FPgViPQA0mf7+fpHsaztmn0wmzz///HPPPbf+Q/6Q5zwYiUREyBaDZMZw7/F4nE6n5NtvtVqlOj1suo0bN/b29s72wVwiRHMHWapBrAeAJhcMBjUazYKCVKlU8vv94rdisZj4RZ1OR7Jv1nlQhGzxKzOGe/FPjbjYvM/na8S7hYrK6fuzvVchQhDrifXEegBQtsHBwa6uru7u7vlc9XJgYMBoNJrN5skoT7Jv4nkwk8l0dHRUfrGShifPYzEYDPVcq3428XjcYrE0rj6BQKD66VSf8EOEINYT64n1ANAMQqGQyOsiq/X19cVisWw2WywWyxOnO4v0Fo1GnU6niO8mk0n865TfJdnLhNhlks+Dbre7+tdFyq+cx6JSqRpxEvzw8HBnZ2dDqyTG8OTT0Wq1Xq+3MtSJEMR6Yj2xHgCaRyqVEjHOYrHo9frKYVqR3kTWt1qtHo9njqOzJPslFw6HL7vssrZF1IhnsWfPnja5IsiCWE+sB4CWQLJfZNlsNhqNirdba9euveCCC97znvc4nU5p58FSqdTV1VV9bDsQCFSugiLe9VUOcktLjB+j0djQujkcjuqCVA7YFwoFIgSxnlhPrAcA2QfutZUWeNaFV9700NDrlYWHEvd/7tILzr/4uju37T8xvmBs709uv+7i85Zd9nnPrhovwEyyb7RwOCxSqclkUqlUUya4973vffl8Xtp50O/3Tz9ZpUKv1zfifgWJRMJsNjeugIODgzOegUOEINYT64n1AKAE4zdKvGX72NhrsQ3Gld6Xxhf9+r6b+ncdeuPQzl7jRa7d40uev+vq3qfeOHpg21eXX7mp5mBOsm+oUqkkkn13d/f0Ca6/v1/aeTCXy6nV6umBvsJisUz/lEX9xBsJ8b6lcdXr7OwURTAYDMFgcMrF14kQxHpiPbEeAORvh6PNsUP8/61ta8+54+nxJb8PbXx8X2XJ5e7hiex/KHvwTfH/Yz+7+cK7nq/jwUj2iyCVSn30ox99z3veM3ldl8oVGyWcB8X7hBkDfYXb7e7r65P8edlstlAo1KCibdq0yWg0Tg/0RAhiPbGeWA8Aior1J8YObv/aio89+FLVPxx96pu3PLzv+MnvTowVDuze4vjSI+k67yFJsm+oQqEg4q/JZLJYLJXZTQRWyefBuU+dF+8rDAaDtM9LPKJ4f1LPnY/nNvcdkYkQxHpiPbEeABQR68epllsfeO7IO4tzux4PD/3xtB9rX/GFB3cdOl7/Q5LsG2R4eNhoNDqdzlKpZLfbK+eIL8kJ4mIz5nOvg/kLBoNWq5UIQZClGsR6XpMAMEesnzgJp1ph39PPZMbPujl5v80//eHg6NG38tmdd1/zie9lpXhUkr3kwuGwCPEi/la+7e/vF1Ob1+tdknkwFAp1d3dLtTbxzkSv1yeTSSIEQZZqEOt5TQLALCofmX27etHR/S+8fFT8/3hh95Yf7hlfMnj3VXfGC8UjQ9/+6PJvDkn0yCR7qZRKpd7eXoPBkEqlJhf6fL7qQ/WLPw92dXWJXSzJqjweT09PDxGCIEs1iPW8JgFgVo+tnuiAqx+rOv9mxzvX7jb7XpnI/i8Ev2zSnrusc9Xfx0clfHSSff1GR0dXrly5atWqk39ZOSUcDotkv4Tz4NDQkEajqX/nJhIJ8f6kEVfMJEIQZKkGsR4AQLKXBRF5RfXcbvf0fxI5eMmv0hgMBg0GQz2fc81kMiLTz/15ViIEQZZqEOt5TQIAyV7BPB7PgiLvksyD/f39ItnXtnOTyaQYGIFAgAhBkKUaxHpekwBAsm9Ck1exHBkZkf88GAwGNRrNgs6zL5VKfr9f/FYjbmtFhCDIUg1iPQCAZL/0qq9iqZR5cHBwsKurq7u7ez5XvRwYGBBP0Gw2y2cwECGI9cR6Yj0AgGQvpSlXsVTWPBgKhUReNxgMfX19sVgsm81WLtRTKBQymUw0GhXvVcQAMJlMMjlIT4Qg1hPrifUAACmT/eDgoKKbeS6XE4nW4XCYzWaRa/V6fWdnp8ViESlWPF8RauezkhmvYqnEeVBsv9vtFk9f1KGjo2P8VmgqlXheVqvV4/GIfE+EIMhSDWI9oxAAmjPZr1mzZjLtKStgJZNJkVbVarXNZvP7/YlEQjyvbDY7PDwcj8d9Pt/kv4olc6xntqtYgghBNahGS8X6t7ffduY7/f7mrW+Wx/b+5Hbx5bLLPu/ZRX8EALkne61W6/F4lBXrxfuQnp4evV4fDAar7wk1XaFQ8Hq94jna7XYR36f/wBxXsaxhEjwmlh3JJJ8M3ffZe548+TMnRqJ9N6w4//zl19/18wMnattlaysPcNaFV9700NDrlYWHEvd/7tILzr/4uju37Z9Y7YEf3HBqSy6863m5D8MZSld5RuK7U89oejEJssR6Yn0D7XvY/eODx564te3W6Njh7ZsD6fLzd13dK+p+YNtXl1+5iVM4AUDOyV4QHXvlypUKivXxeLzyVmTuQF8tn8+7XC7xNmDKOTYLvYrlu06Ce8WyoS03Wi4/r82x4+TP7HZddNk3nsvnn7n7wxd/Y09tj1O5XfHY2GuxDcaV3pfGF/36vpv6dx1649DOXuNFrt3jS/Zu3fob5YzB6fnh5DMSw+zUM5peTIIssZ5Y30D7M5mxiZsmjr/kjmezL5fHDmUPjtf92M9uVsDRAgBo6WTf399fyeuViznKP9YHAgERxOdzyZfpKp+IjUaj5VqvYvmuk+ArJ5efXDLhtw985JOPHBTvLX58Y9d3flfjA51a4Vvb1p5zx9PjS34f2vj4vsqSy90T5xgNbd36knIG4PT8cPIZiWF26hlNLyZBllhPrG+4KS+5E6Luu7c4vvRIusQYBAC5+slPflL5VKXg9XrlH+tjsZh4K1LP5z4HBwdFsv/nf/7n2q5iOb9JcOqSN1JbvvCZr7u/5Xrk/x2t6yFOjB3c/rUVH3uwOrwffeqbtzy87/j4l4nwd7Y4rvngshWfvv/ZwwoZgzNEdjHMTj0jYj2xnli/9C/LHaLuK77w4K5DxxmCACArhUJBhGOXy2U2mycz/eR5OHKO9el0WqPRJJPJOtcTDof//M///B//8R8bmU2rl/xpX+DLd0f3xu/+1F8/mjle+0OMUy23PvDckXcW53Y9Hh7648lvRp7dvuvg0TcPRm83mL67V6GxPrdLPM0/vlv0J8hSDWL94rws//SHg6Oi7tmdd1/zie9lGYMAIBv5fL6/v99gMMwY2UdGRuQc68X7EL/fL8mq7r77brvdvlixfrfrojWRN8vlN35qmzxlXIKHEG/R9j39TObNyn4d/750eOTV8c/svnOijtJi/cQzGh9mp12TiFgPYv1iGv8oz9ptb1W+Gbz7qjtF3Y8Mffujy785xBgEAPlJpVIbN26cku/dbrdsY30sFjMajRKdMzMeGrVa7dxXvax1EpzI16OPrmr71PezxYnLufz7vYbL7vrl4fyz9xgvue/XtT/ELdvfrl50dP8LL4+f03O8sHvLDyc+ifurvo9/a9fRY6/9fL3huoeyihiIp5Xu5DOaOI/3h3tmLiZBllhPrG+sFzdfPdHsr9784sRr9IXgl8cvcNm56u/jowxBAJCzoaGh3t5enU4n+vaZZ54p21hvMpkGBgYkXKHX67XZbA2YBMvlnevPOFUu+0RiPfRU/2c+fMH5Kz75jZ2v1vYYj62eWN3qx6rOvzl5Ws44s2/io7pje3/01Ws/cJ62s2fz84q4wPSU0k1/RjMUkyBLrCfWU3cAwFySyeRf/dVfLVWsD4VCc9wKKpPJiDce0j5ioVBQq9XzvActiBBUg2oQ6wEACuveSxLrY7GYSqXq7e2d8Y5RHo/H6XRK/qBWqzUSibDTiRBUg2oQ6xmFAECsl0xPT49Yf0dHx/RwL/J35WLz0vL5fI14twAiBNWgGsR6AEDrxvpsNqtSqSqPMiXcGwyGeq5VP5t4PG6xWNjpRAiqQTWI9YxCACDWS2nTpk3VjzUZ7kXcb8RJ8MPDw52dnex0IgTVoBrEekYhALRcrF8qjXiyIyMjkn8SF0QIqkE1iPUAAAXE+sY9dKlUMhqNkw9kMBiCwWDlQvUdHR3FYlHyR0yn0+IR2elECKpBNYj1jEIAINZLxuv1Tg/0FXq9PpvNSv6IiUTCbDaz04kQVINqEOsZhQBArJfG6OioWq2eHugrLBZLLBaT/EH9fr/D4WCnEyGoBtUg1jMKAaCpiDy9VLG+r6/P5/NND/QVbrdb/IDkD2qz2UKhEPudCEE1qAaxnlEIAE2iUCjcd999BoNhqWL93KfOp1IpsW2SP6Jarc7lcux9IgTVoBrEekYhAChJPp8P/v/t3X9wW/Wd73/3uww1Wy0VQWS0fFVQiC4rOqZVugq4ncBXZcVFuw0bl6tumiYDXqrtipIQz44BlZtktUXMurnaQRvUXqXRtEpW03pZdaMG3yBSgcpXKUriLppvDRWJ2ijgpCY1RA0KURzh+Pux5QjFdoJjH/08z8cf4JzYJ/b78/6cz0vHR+cEAh6Px+l0dnZ2Ll++fNmyZVqt9o//+I/FQftjH/vYrl27anuDy0vQ6/WxWEzCHYpSWCwWuoIIQTWoBrGeLgSAxiOSscFgmDGvF69yqdtYHwwG29vbpdpbPp8Xr2fi8TgtQYSgGlSDWE8XAkCjCofDU8K9yLjF5z3VbawXxPccCoUk2ZXb7e7o6KATiBBUg2oQ6+lCAGhgQ0NDK1euVCqVpbDe19dXOnrXbazv7+9XqVSpVGqe+1m3bt0111xTiTtmgghBNagGsR4AUCU+n0+E4w0bNmzbtq2Y1K1Wa/nRu25j/djEBfE6nW4+73NNp9MLFiy47rrrHA7HxW68AyIE1aAaxHq6EADqVyqVWrZsWXt7+8DAQDEii2O1UqkcHBxslFgvOJ1Okeznds4+Ho9rNBq/3y9eGFgsFlGN8p8dRAiqQTWI9XQhANS1fD6/YcMGlUrl8/lKG4ux3uv1Tjl613msL37n4me5rOvsC4VC8dcU5Y+16unpUavVlXjQFYgQVINqEOsBABKLxWJ6vd5qtU45My3CcXt7+5QLURoi1guJRMJgMIjvfzZ3vQyHw6ICJpNp+jn+4vl7LsghQlANqkGspwsBoH4NDw93dnZqtdrSO2LLRaPRZDI5/ejdELG+KBgMiryu0+m6u7sjkUgmkyk+1iqXy6XTafFT2+12kdqNRuMlTslzQQ4RgmpQDWI9XQgAUkZwEVJtNpvJZBJRVWTxtrY2s9ksgmkoFCreffJyI69are7q6rrY1854frqxYn2ReHHicrlErUTRWltbxTepUChE1hdh3e12i3w/m53M/4KcOimd5I1EhKAaVINYTxcCwKzE43ERQJVKpdVq9fl8sVgslUplMpmBgYFoNOr1ekt/W3yr60cSQVbEOKPR2N/fT3kvayDmc0FOzWO95I1EhKAaVINYTxcCwKyI/N3R0aHVagOBQPHqkYvJ5XIej0etVnd2dg4NDV3s00Qe7enpUalUbrf7crLp2V1f//iH8XPVs6fFthPp+PPBTV96/PnJzxnaes/5T2h78leVL05odfEfu+r6JSu39J8sbjwee/LeW6679sY7H9l55NxFtszHfC7IqWGsl7yRiBBUg2oQ6+lCAJitaDQq0pXI35fOYeWy2azD4RDpbfo18WMT7yJta2tbvnz55T9o6dBW14+OnX7uwZYH+0be2bXZ/4bY1v/MfeZbF7TYdk9+zi93fG//e6NjY2dee3nfu9Uo0Eh4TcsDu0ZG3o6s1y/zHB7f9Oqmlc59x987vqdLf4Nj/8xbJDC3C3JqFeslbyQiBNWgGsR6uhAAZsvv94soNpu7uEzX29srvrb8XbAipa1du1ZsvKx7PpY5kk6PjI3ttk2E+NFM5q3J7ZNbJpw8OXHG/K0Xdr/2QXWKdP5fP7Nz9dXrXhrf8pvghh2HiltudQ3MvEUac7ggpyaxXtpGIkIQqKgGsX6cz+eb8kCT4gfDw8NTbooMADIXiUREZJzlWzlnlEgkRCArnmoVUV7szW63i3AvTYy+xJaRX+z498PVqtPEv35u5NiuhxZ/4enyf/XUi088sPXQ6CW3zN9HXpBT83uDSttIRDeCLNUg1k+KxWIKhcLj8RQPc6Lu4gMR6JVKZTgcphEBoCiVSqlUqng8Ps/99Pb2fupTn7r77rv1er0IZ5LF6EtuyYb+yftG1Uol/vVxikWWp/aeKIvb+3b09v/hggA+bYt0LnZBjgj9gUCghrFewkbSarV1dZ09QZZqEOtrz2Qyjb+Tqq1NHGWKH4j/GgwGuhAAyg+V5Y96nQ+bzfa5z31OuucofWSsPxW6/xt9Z6sZ66d8P2NjuUMvvZx+f2ziwqOLbZHajBfkJJNJnU5XvqXKsV7CRhI/WmdnJ9GNIEs1iPUfisVi049inKoHgJJIJKLX66UK4iLHqtVqyW5WOP4W1dU7z3y4oTD0g+Ut93wvkz9/h5kD31ps31O1YhXfMnvBq4hTR15/85T4/2hu/zM/PDDzloqYfkGOWN3EGld+wr6asb6uG4noRjWoRhPE+rHzJ+xLOFUPAOWMRqO0Jzs8Ho/VapViTwc3L504cC/dfLC4Yc/aK88fzDsnw37/xtsf/0W1arV9xcS/vWJ72fU3k5fljDN535p5SwWVX5Dj9XqLv5euSayv40YiulENqtEssb549qJkbu/NB4CmlE6nNRqNtPvM5XJKpbIhHh3aHEoX5PzDP/zDlF9KSxjr/X7/JS4pavpGIshSDWJ9vTAYDJPnTUwm+g8AStxut91ul3y3Fotlrve1xFwMDw/fcccdf/InfzLl99ISxnoxoCJkO53OGcN90zcSQZZqEOvrRemEPafqAWBKbKrEPcK9Xm8lQh6my+fzwWBwyuWmpRP20l6EI7pFfMmM4b7pG4kgSzWI9XWkeMKe5gOAcjqdbj63GL+YaDRqNpspb6X19vZqNJoZ8/rtt98ueawXrdLa2lr8wmK4Hx4elkkjESGoBrG+jhRP2NN8AFBOoVBU4trlgYGB8jduoqJEtUW+7+7uFglYpO1SZH/22Wclf8usy+Uq/3KR8ru6uoaGhpq+kYgQVINYX2PDw8PBYNBms5lMJr1er9FoxNFBHPXsdnsoFOLtXABQoQVpcHBQ8jdQYpbS6XQ4HL7rrruuvfbalipq7kYiyFINYn3NxONxi8WiVCqtVqvP54vFYqlUKpPJiNf90WjU6/WW/rZ+7okLANXX2tqaz+cl36045Or1espbW8PDw9Jm8UKhULoFhaBWq/1+f/FG9U3fSARZqkGsr81Zio6ODq1WGwgELn2IyeVyHo9HHJU6Ozvr6gnVAFA14miZyWQk320sFuPOY3USOCSM9T6frxToxQJavsg2fSMRZKkGsb7aotGoONa43e7ZnzPIZrMOh0Mcj5LJJK0JQG7MZnPxSUbSEvnPZrNR3maK9cPDw0qlcnqgl0kjEWSpBrG+qvx+vzjczO0Wlr29veJrK3FzLgCoZy6Xq7u7W/LdWq3WYDBIeZsp1judzhkDvUwaiSBLNYj11ROJRDQazXzurpVIJESy55w9AFkRBz2dTiftPkXyUyqVpVsfojli/aV/Dd70jUSQpRrE+ipJpVIqlSoej89zP729vVqtluvsAciKXq+X9lF9gUDAYrFQ2CaL9TJvJIIs1SDWV4nJZPL5fJLsyuFwdHZ20qMA5CMYDLa3t0u1t3w+r9Vq53+eBQ0X65u7kQiyVINYXw2RSESv1xdvsDV/2WxWrVZz10sAsmIwGEKhkCS7crvdHR0dlFSGsb65G4kgSzWI9dVgNBrD4bCEO/R4PFarlTYFIB+JREKlUqVSqXnuJxaLqdXqStzoEA0R6/v7+5u1kQiyVINYX3HpdFry58/lcjmlUskzaAHISiAQ0Ol083l7ojggiygWjUYppmxjfRM3EkGWahDrK87tdtvtdsl3a7FYpPo1IgA0CqfTKQLZ3E61xuNxjUbj9/spo8xjfbM2EkGWahDrK07k70rcbN7r9Vbi1QIA1LlAIKBSqS7rvEahUPD5fOKrKvE0IjRirG/KRiLIUg1ifcXpdLr53Kv+YqLRqNlsplMByFAikTAYDO3t7bO5WWE4HNbr9SaTaf6XU6OZYn3zNRJBlmoQ6ytOoVBU4iL4gYGBtrY2OhWAbAWDQRGzdDpdd3d3JBLJZDLFpxGJQ246ne7r67Pb7RqNxmg0cpKeWC+HRiLIUg1ifaOWcnBwUPJ34gJAw0kmky6Xy2w2a7XaK6+8UhxyFQqFiGgWi8Xtdlfil6Voslg/vZFaW1sbsZEIslSDWF9x4uhw6cdZz00qldLr9XQqAJR0dnaylkO2MYjmpxrE+ooTr/srcV/bWCxmMpnoVABNKbS6eKL2quuXrNzSf3Jy64l0/Pngpi89/nzp884eDnXdteiTCz5jC+1Np6+44grxNdI+JwSVcXbX1z/+4Qn5Vc+enml8s698596b1Te0fzN0pCBhIx2PPXnvLddde+Odj+w8cq70qSdjj9z8d7uJ9QRZqkGsvwSz2VyJq/F8Pp/NZqNTATSnkfCalgd2jYy8HVmvX+Y5XNzY/8x95lsXtNhK2et3gRXGrt1HT/32heDer06cqhcMBgP1q3uHtrp+dOz0cw+2PNg38s6uzf43ZhjfzL/esXj9z975/Qvrl3yj77RkjfTqppXOfcffO76nS3+DY//k5/3hZ+tubilrLWI9QZZqEOtn4HK5uru7Jd+t1WoNBoN0KoAmtdtWzFhndq6+et1L07ePO+a7+/Nbfjv+Ufr8qfoiTtjXvSPp9EhpNEczmbdmGN/ow59Y9ZPTEz2weMMvJWuk3wQ37DhU3HKra2Dik7J71i5b9dUvEusJslSDWH9pyWRSp9NJu898Pq9UKufzhDwAaIBYf27k2K6HFn/h6cMzx/r9jhu+8u0t9930p23/7f+xlr/JkhP2DfbibeYtr266+TMb950YfPGxpZ94OCpxI42devGJB7YeGhUfnXjh0a97Xz99wTdDrCfIUg1i/cz0ev1s7ok7e4FAwGKx0KYAmjrwjVMssjy198RFYl/0m1ctdbz41oGfrP3Yx/6vKbdP4YR948f60Td+uFK/8Ka/+ZeNy+d1tn6mRhret6O3/w/jH52IPvO/D5yc+s0Q6wmyVINYP7NgMNje3i7V3vL5vFarjcfjtCkAOQW+6dv/a6NuZejU2NqHvjSe25RKj8cjPtDpdOK/er2+UChQx0aO9ZM+2Pv4jV/e8a6EjZQ79NLL6ffFB9nsifO5/zz143uJ9QRZqkGsvySDwXBZT6i+BLfb3dHRQY8CaGbFdzqenbq5MPSD5S33fC+Tn7iBSX63/eb7vvvLj195hfK6zx0YGiquXvl8vqenR6FQBAIBCln3o7x655mLje/vE89GD588uM160+rQCeka6dSR1988Jf4/mtv/zA8PnN86+n7oay2rQqdGGzcGEWSpBrG+ShKJhEqlmv8Tp2OxmFqt5gErAJrb9hUTZ05XbL8gze1Ze+X5c6qdE2Gw8OZ/3qVTLfi/b//OK9kpq9fg4KDT6eSEfR07uHnpxFgu3Xxw5vHN/NuqW6755KK7up87OiphI5Wdnjd5J9+qm3zyzyY33bX1KLGeIEs1iPUfJRAI6HS6+bzPVaR5kemj0SgNCgBFU4I7azlkG4NofqpBrK8qp9Mpkv3cztnH43GNRuP3++lOAGAtB41E81MNYn2NBQIBlUp1WdfZFwoFn88nvqoSj7UCAFYvgFjPCFINYv1cJBIJg8HQ3t4+m7tehsNhvV5vMpnmf10+ALB6AcR6RpBqEOslFgwGRV7X6XTd3d2RSCSTyeTzebE9l8ul0+m+vj7xVxqNxmg0cpIeAFjLQSPR/FSDWF/Xksmky+Uym81arba1tXX81ssKhQj0FotFrVb/x3/8B70IAKzloJFofqpBrG9g3d3dTqeTXgQA1nLQSDQ/1SDW10xodfEOuFddv2Tllv6Tk1vPHg513bXokws+Ywsd/ag9RKPRZcuW0YsAwFoOGonmpxrE+topPtluZOTtyHr9Ms/hiW2/C6wwdu0+euq3LwT3Hv+oHeTzeYVCkcvlaEcAYC0HjUTzUw1ifa3strXYdov/n9m5+up1L41vOea7+/NbfnsZu7BYLJd1K0wAYPWiCCDWg2oQ6ysQ68+NHNv10OIvPD1xtn6/44avfHvLfTf9aduDP86cm8UuPB6P3W6nHQGAtRw0Es1PNYj1NYz14xSLLE/tPTGxJfrNq5Y6XnxreP+mz7Y9+atZ7CKVSmm1WtoRAFjLQSPR/FSDWF/DWD9xEc6H/mujbmXo1NjYyE/vn7ws56NpNBoeRAUArOWgkWh+qkGsr5HiW2bPlm/K77bf/LXgmyf2bfzsnVsys9uNzWbzer10JACwloNGovmpBrG+BravmLgEZ8X2E2UbC2/+5yN3LFLrvvSdV7Kz3E9vb+/y5cvpSABgLQeNRPNTDWJ9A8tmswqFIp/P05QAwFoOGonmpxrE+gbW3t4ei8VoSgBgLQeNRPNTDWJ9A3M6nQ6Hg6YEANZy0Eg0P9Ug1jeweDxuNBppSgBgLQeNRPNTDWJ9AysUCkqlcmhoiL4EANZy0Eg0P9Ug1jcwq9UaDAbpSwBgLQeNRPNTDWJ9A/P5fGvWrKEvAYC1HDQSzU81iPUNLJPJqNVq+hIAWMtBI9H8VINY39j0en0ymaQ1AYC1HDQSzU81iPUNbO3atT09PbQmALCWg0ai+akGsb6B9fX1mUwmWhMAWMtBI9H8VINY38ByuZxSqRT/pTsBgLUcNBLNTzWI9Q3MZDJFIhG6EwBYy0Ej0fxUg1jfwHp6etauXUt3AgBrOWgkmp9qEOsbWDKZ1Ov1dCcAsJaDRqL5qQaxvrGp1epMJkODAgBrOWgkmp9qEOsb2Jo1a3w+Hw0KAKzloJFofqpBrG9gwWDQarXSoADAWg4aieanGsT6BjY0NKRUKguFAj0KAKzloJFofqpBrG9gBoMhHo/TowDAWg4aieanGsT6BuZwOJxOJz0KAKzloJFofqpBrG9gsVisvb2dHgUA1nLQSDQ/1SDWN7B8Pq9UKrPZLG0KAKzloJFofqpBrG9gy5cv7+3tpU0BgLUcNBLNTzWI9Q3M6/XabDbaFABYy0Ej0fxUg1jfwFKplEajoU0BgLUcNBLNTzWm8Hq9w8PD06sxODjYoE81bfLh1Gq1ItwzbwGAtRw0Es1PNcqFw2GlUikSfPFJR6Ia4oOenh6FQhGLxYj1dcdut3s8HuYtALCWg0ai+anGFAaDQRTBaDQmEgnxgV6vF/81mUyNOqDNPVqhUMhisTBvAYC1HDQSzU81pgiHwy3TNOip+uaP9dlsVqFQ5PN5pi4AsJaDRqL5qcYUxRP2JY17qr75Y72wbNmyaDRK1wIAazloJJqfakwx5YR9456ql0WsdzqdDoeDrgUA1nLQSDQ/1ZiudMK+oU/VyyLWJxKJtrY2WhYAWMtBI9H8VGO60gn7hj5VL4tYLyiVyqGhIboWAFjLQaxn4KjGdMUT9g0/oHIYqq9+9auBQICWBQDWchDrGTiqMV3xhD2xvgH4/X6R7GlZAGAtB7GegaMaRcPDw8Fg0GazmUwmvV6v0Wja2trMZrPdbg+FQrlcjlhfjwYHB1UqFbMXAFjLQaxn4KhGPB63WCxKpdJqtfp8vlgslkqlMpnMwMBANBr1er2lvxVbiPV1R7wI6+/vZwIDAMkGxHrIthrpdLqjo0Or1QYCgUs/1yiXy3k8HrVa3dnZ2Shv0ZTLcHZ1dblcLiYwAJBsQKyHPKsRjUZFTHe73bN/UGk2m3U4HOJlQDKZJNbXi0gk0uj3IgUA1nLQSDQ/1Zgbv98vMv3cbmHZ29srvravr49YXxfEyzKFQtGI734AANZy0Eg0P9WYj0gkotFo0un0nPeQSCREsq/zc/Yyam6z2Vz/L7MAgLUcNBLfM9WQUCqVUqlU8Xh8nvvp7e3VarX1fJ29jJrb7Xbb7XbmMACQbECsh3yqYTKZfD6fJLtyOBydnZ3E+tobGBjQ6XTMYQAg2YBYD5lUIxKJ6PX6QqEgyd6y2axara7bu17Kq7nFSMznsioAYC0HiPWMYAMxGo3hcFjCHXo8HqvVSqyvvc7OTql+CwMArOWgkfieGcF6lk6nNRqNtPvM5XJKpbI+78Iir+bu7e3t6OhgGgNgLacIINaj6atRofdVWiyWUChErK+x4eFhhUIh1fVVAMBaDhqJ75kRrFsif1fiLoher7c+78Iiu+Y2Go1zexIBALCWA8R6RrCB6HS6SrypMhqNms1mYn3tbZjATAbAWg4Q6xnB5v4BK/Qo0oGBgba2NmJ97cVisfb2dmYyANZygFjPCPIDzsHg4KDk78Ql1s9FoVAQL92Gh4eZzABYywFiPSPYxFpbW/P5vOS7TaVSer2eWF8XOjo6ent7mcwAWMsBYj0j2MS0Wm0mk5F8t7FYzGQyEevrgs/nq+cH/wIAazloJL5nqjF/ZrM5EolUIknabDZifV1Ip9Nqtbp8SyVufgQArOWgkfieqUYNuVyu7u5uyXdrtVqDwSCxvl7odLqBgYHix06nsxJDDgCs5aCRas7r9Za/oa70PQ8ODvLg+aY/FCSTSRH5pN1nPp9XKpX1+S5NGR3Zy98zYbfb3W63+MDj8Yiers+XXADAWg4aaZ7C4bAIYSLBFx9GKb5n8UFPT49CoeA5NnI4FOj1emkHOhAIWCyWOh1Q+fRuPB43mUwOhyMajT777LNms1kMTMuE0pl7AGAtB5qskQwGg/hWjUZjIpEQH4icJ/5bn295ZAQlFwwGJbyzeT6f12q1IlIS62svFApdccUVoolbW1v/6I/+qPRx8RU8ALCWA83XSOFwuGUaTtXL51AgXteJBCjJrtxud0dHR/0OqNw6uHSGvkQMNhMbAGs50MSNVDxhX8KpelkdCvr7+1UqVSqVmud+xEtBtVpdiTtmEuvnrng9fUl93qIIAFjLQSNJZcoJe07Vy+1QEAgEdDrdfN7nWryPYjQaresBlWcfd3d3l+a2SPlMbACs5UBzN1LphD2n6uV5KHA6nSLZz+2cfTwe12g0fr+/3gdUtq1ss9mK07tu3/cAAKzloJGkUjphz6l62R4KAoGASqW6rOvsC4WCz+cTX1WJx1oR6yUjxulTn/qUaOhsNsvEBsBaDjR9IxVP2DNwcj4UJBIJ0Qbt7e2zeXUnXgrq9XqTyTT/6/KJ9RW3bdu2RYsWMasBsJYDcmik4gl7Bo5DQTAYFHldp9N1d3dHIpFMJlN8ulEul0un0319fXa7XaPRGI3GhjhJL99Y3/JRavJdDQ8Piw6z2WziFaHoM61W29bWZjabRVeFQiHRZBx6GmtAG0KddF2djGDTz0FmCmQbCqfMbpHVONbVvBp1IplMulwu8eOLY35ra6sYBYVCIbK+xWJxu90i3zfelCQF1nZti8fjonuUSqXVavX5fLFYLJVKiVeNAwMD0WjU6/WW/pZnZhFWmrLraj6CMpmDzBTIMNZzrCNvNN/LVGJ9na5t4lVgR0eHeIEYCASKv/q5GPHq2ePxqNXqzs7OoaEhFhLCSjN1XQ1HUFZzkJkCWcUgjnVyzhuh1cWKXnX9kpVb+k9ObBt548cP33njgoWf/rJ73/l3VL69e/1t6oXGtX2/I9aTAudHvDIW08btdl96gpXLZrMOh0NMy2QyyVpCWGmarqvVCMptDjJTIJ9Yz7FO7nljJLym5YFdIyNvR9brl3kOj2965dGlXS++d+rozr9ftKRn4t2v5w5sbLtny2sHt61oeyIxSqwnBc6Z3+8Xc2xuN9jq7e0VX9vX18dyQlhpjq6ryQjKcA4yUyCTWM+xjrwxNrbb1mLbLf5/Zufqq9e9NJH0j2eOvS/+f/onq65/9JXxLameJV/0DY6NHdtmNvzzr4n1pMC5iUQiGo1mPu/DSCQSYqZxzp6w0hxdV/0RlOccZKZADrGeYx3Hug9j/bmRY7seWvyFpw9Pbjw3kju6/xnb/dtShfE//nz9NfdveXWg/5V/uf+a9T+f1s9er7chfzFLCqzm2pZKpVQq1fwfgCVeQ2u1Wq6zJ6w0QddVeQRlOweZKWj6WM+xjmNdWawfp1hkeWrvibKNVyz+ytP7jhevuBGxfs1P3i8YPrto0ZX60OBgqZ9F6drb2xv0UcTE+qqubaJLfD6fJLtyOBydnZ0sKoSVRu+6Ko+gbOcgMwVNH+s51nGsK0vwExfhfOiDd48NnTqTzex57LYvfjcz8cKnZ8ldW4+O9W1fJ4r/8dbWDRs2iA+cTucVV1whPgiHw8R61rZLiUQier2+UChIsrdsNqtWq7nrJWGl0buumiMo5znITEFzx3qOdRzrPlR8y+zZ8k2Jx/78kWguf6L/27cveqJ/fMvo/g2f/svv/vrg9//6Ezd+bspYGAyGRp2SpMCqrW1Go1HaF38ej8dqtbKoEFYauuuqOYJynoPMFDR3rOdYx7GuZPuKiYKu2H6iLOm/Hvhbo/qahW3L/zF6/oKit59ff9vChcZ1m38anzIWgUCAWC/3FCiaQLyivdjfptNpjUYj7c+Sy+WUSmXTPxPuElUlrPh8vktc8lgnXTc4cc1iFUbQ7/fLeQ4yUyDbWM+xjrwxTx0dHaWB0Gq1Uv2ig1jfwLFevDIWTe90OmecbG632263S/7jWCyWUCjU3EPW3d19saoSVmKxWGtra1dX14zhvk66zuVy2Wy2i738kHAExXcl5znocDiYKZBnrOdYR96Yp4GBgeIl9YLH42ngKUmsl3BtW758udjDjJNNzIdK3PzV6/VWYvbWleHhYeWEGZ+mQVhZs2aN+DHF8aizs3PKjczqpOvEqGk0mou9/JB2BMWPLNs5KH5elUp1scWemYImjvUc68gb8yfWUFFScRSd/XO7iPVNHuszmYyYz8X9TJnYOp1uPveOvZhoNGo2m5t+1MRL52JV1Wq1+Lh8yhFWRI+JI3vxh50S7uun64LBYPE7nL4ISTuC4uctzcHivyVeFspnDvp8vtLPPuVlMDMFTRzrOdbJ7VhXCSLCFe+E09hTklgv7drmcrnK91YK9wqFohIXpQ0MDLS1tTX9qBUKBfFjlqpaHu4JK+Uve6aE+7rqumXLlpW+w/LQKfkIynkOipliMBiYKZBbrOdYR96Qqp8v/SYlYn3jxfrKqcSPc+DAgRaArqMadVkcEOsb+tvgWFducHBQ8nfiNv2pXmJ9Yw/hlJPKOp0uEAgU308tXkZX4mqtVCql1+vlMHBr164tHya1Wt3T0yNeVRNWRF+JTiu/227pvmZ11XXF9wBMOZGcy+WkHcHpp6v9fr+s5qDdbp9eZ2YKmjvWc6yT4bGOWE+sr/gQer3e0gTz+XzlN0jSarWZTEbyHycWizXo840vS39/f+kt6lMuryeslH4PWx7o663rotFo+ctdMTsqNIKli8unvw1DDnMwkUgwUyDDWM+xTm7HOmI9sb7iQ1i8Ycv0CVZkNpsjkYjkP46Y2DabrelHrb29fcaDF2Gl+C5tsXgEg8Hpf1snXVf6fUJbW1vp91eVGEGZz0FRWKPRWAwTzBTIKtZzrCNvEOuJ9RIP4YYNG2acYEUul6u7u1vyH8dqtc6Y55qJOJRoNJqL1VbmYUV03fTFo966TnyT03+TUIkRdDqdcp6D4mcvv/CPmQL5xHqOdeQNYj2xXuIhvPSlbMlkUqy40v4s4l8Ur9dL97RqVuIQeYnnvck8rFz6SXj10HXiO4zH49WZkjKfg8wUyDbWc6wjbxDrifXVHkK9Xh+LxSTcYSAQsFgsLCqElYbuumqOoJznIDMFTRzrOdZxrOPASKyv9hAGg8H29nYJXzprtdpLnxtgQAkr9d911RxBOc9BZgqaO9ZzrONYx4GRWF/tITQYDKFQSJJdud3ujo4OFhXCSqN3XZVHULZzkJmC5o71HOs41nFgJNZXewgTiYRKpUqlUvPcTywWU6vVlXg6NAPafOq866o8grKdg8wUNH2s7+/vl3B2S36PyCrPwTqvBgdGYn2TDGEgENDpdPN534lIEmKORaNRVhTCShN0XfVHUJ5zkJmCpo/1HOs41nFgJNbXYAidTqeYaXN7DR2PxzUajd/vZzkhrDRH19VkBGU4B5kpkEOs51jHsY5YTwqswRCK19AqleqyrnsrFAo+n098VSUeM8GAykF9dl2tRlBuc5CZApnEeo515A1iPSmwBkOYSCQMBkN7e/ts7kIVDof1er3JZJr/dXIMqJzVYdfVcARlNQeZKZBPrOdYR94g1pMCazOEwWBQzB+dTtfd3S1eFmcymeJjJnK5XDqd7uvrs9vtGo3GaDRykp6w0pRdV/MRlMkcZKZAVrGeYx15g1jPENZsCJPJpMvlMpvNWq22tbVVfBsKhULMPYvF4na7ueMNYaWJu65ORrDp5yAzBTKM9RzryBvEegAAgCaJ9QCxvvmc3fX1j384UKuePV3cfDL2yM1/t7ti/2podfHfu+r6JSu39J+c2Da09Z7z30bbk79iVkk1mifS8eeDm770+PPnP+l47Ml7b7nu2hvvfGTnkXOyKc1MLTdDcbKvfOfem9U3tH8zdKRQryM48saPH77zxgULP/1l976shNWYoTHe3r3+NvVC49q+38lxplThSAhifXWOdTPM7rOHQ113Lfrkgs/YQkfrYw5O/ybnv1rNrhrED2J98zi01fWjY6efe7Dlwb6Rd3Zt9r8xvvEPP1t3c0uLrYKL2Uh4TcsDu0ZG3o6s1y/zHB7f9Msd39v/3ujY2JnXXt73LpNKstHsf+Y+860LPhzNVzetdO47/t7xPV36Gxz75VObGVpuenEy/3rH4vU/e+f3L6xf8o2+03U6gq88urTrxfdOHd3594uW9KQkq8b0xjh3YGPbPVteO7htRdsTiVHZzZSqHAlBrK/GsW6Gw/7vAiuMXbuPnvrtC8G9x+tgDqZm+CalWK1mVQ3iB7G+eRxJp0fGxnbbJpau0UzmrbGx7J61y1Z99YuVXcwm/8WxMztXX73upfEtJ09OvJB+64Xdr33AnJJsNC+o9rjfBDfsOFSs/K2uARkVZ3rLTS9O9OFPrPrJ6YnPWbzhl3U6giPHM8feF/8//ZNV1z/6imTVmN4YqZ4lX/QNjo0d22Y2/POvZTdTqnMkBLG+Cse66bP7mO/uz2/5bR3NwTdn+CYlWa1mUw3iB7G+WROPcOKFR7/uff30Bctbpf7FcyPHdj20+AtPH/7whfUvdvz7YWaUZKN50S1jp1584oGth0blVpbpLXdBcV7ddPNnNu47MfjiY0s/8XC0fkfw3Eju6P5nbPdvSxUkrkZ5Y/x8/TX3/1SsvCM/vf+a9T+X20yp0pEQxPqqHevKZ/d+xw1f+faW+27607YHf5w5V0dzcIa1aX6r1WyqQfwg1jft8nYi+sz/PnBy5skm9b84TrHI8tTeE6Wt2dA/ed9gQlU+1g/v29Hb/wfZlWWGlruwOKNv/HClfuFNf/MvG5fX5mz9LEdQ/PGKxV95et/xUYmrcUFjiFi/Jjwy8VvsBetfltdMqdqREMT6ah3rLpjd0W9etdTx4lvD+zd9tpZXk89ibZrvajWbahA/iPVNu7xNToDz1I/vrd5rdPHiOXT/N/rOMqEqHApzh156OT1+FUc2m5V1WS66/YO9j9/45R3v1ukIfvDusaFTZ7KZPY/d9sXvZiSsxtTGSPUsuWvr0bGxo9//izlfxN+oM6VqR0IQ66tyrJs6u/9ro25l6NTE7+IuuCixpt/q9LVJgtVqNtUgfhDrm8z4e0pW7zzz4YbR90Nfa1kVOjVayX/xgV1Tp9CBby2272E+ST2ahaEfLG+553uZ/MRvWk8def3NU+NjnNv/zA8PyKss01tuSnF+n3g2evjkwW3Wm1aHTtTrCCYe+/NHorn8if5v377oiX7JqjG9MUb3b/j0X3731we//9e3bth/TnYzpSpHQhDrq3Gsmz6787vtN38t+OaJfRs/e+eWTF3MwenfpBSr1ayqQfwg1jeVg5uXTozS0s0HixuST/7Z5MBNnKurgO0rJna/YvuF0al/4+2P/4L5JO1o7ll75fl52Dl++Cw7DWnyviWbuszcclOLk/m3Vbdc88lFd3U/d3S0bkdw5PXA3xrV1yxsW/6P0SHpqjFTY7z9/PrbFi40rusbkuFMqcaREMT6qhzrZpjdhTf/85E7Fql1X/rOK9n6mIPTv0kJVqvZHuuIH8R6AACAuor1ALGeWA8AAIj1ALEeAACAWA9iPbEeAAAQ6wFiPbEeAAAQ6wFiPbEeAAAQ60EDE+sBAACI9aCfifUAAIAYBNTE2V1f//iHJ+RXPXt6bOx47Ml7b7lO/OmRnUcmn9N39nCo665Fn1zwGVuogZ7nwYQEAADEesjEoa2uHx07/dyDLQ/2jbyza7M/NfbqppXOfcffE/2sv8Gxf+KTfhdYYezaffTUb18I7j1OrAcAAMR6oM4cSadHJp7Ca9s9Njaaybw59pvghh2HJvp59a2ugfHPOea7+/NbftuAU5LhBQAAxHrIyXisX+vzpdPp8n5+YOuh0bGxbDb6369Z8u0t9930p20P/jhzjlgPAACI9UDdxnpvMtna2up0OvP5/NjwPtHPfxgbCwQCavWCv7hykePFt4b3b/ps25O/ItYDAABiPVC3sX732FhHR4doY91NN37nf/1AfNBuNI7/Ufep/7n4b0KnxsZGfnr/1eteItYDAABiPVCPRsJrWlbvPDOWTCan364+ENi2237z14Jvnti38bN3bskQ6wEAALEeqD8HNy+dyO9LNx8cP2H/+fJMr9XpCsKb//nIHYvUui9955VsI01JxhYAABDrIU+xWKw81odCoQaekgwnAAAg1kO2TCZTMdMbDIbGnpKMJQAAINZDtkon7MPhMLEeAAAQ64FGVTxh3/BTkoEEAADEeshZ8YQ9sR4AABDrgQYzPDwcDAZtNpvJZNLr9RqNpq2tzWw22+32UCiUy+WI9QAAgFgP1K94PG6xWJRKpdVq9fl8sVgslUplMpmBgYFoNOr1ekt/K7YQ6wEAALEeqC/pdLqjo0Or1QYCgXw+f4nPzOVyHo9HrVZ3dnYODQ0R6wEAALEeqAvRaFTEdLfbfelAXy6bzTocDvEyIJlMEusBAACxHqgxv98vMn0sFpvD1/b29oqv7evrI9YDAABiPVAzkUhEo9Gk0+k57yGRSIhkX+fn7JmQAACAWI+mlUqlVCpVPB6f5356e3u1Wm09X2fPhAQAAMR6NC2TyeTz+STZlcPh6OzsJNYDAABiPVBVkUhEr9cXCgVJ9pbNZtVqdd3e9ZIJCQAAiPVoTkajMRwOS7hDj8djtVqJ9QAAgFgPVEk6ndZoNNLuM5fLKZXK+nwGLRMSAAAQ69GE3G633W6XfLcWiyUUChHrAQAAsR6oBpG/K3Gzea/XW4lXC8R6AABArAdmoNPp5nOv+ouJRqNms5lYDwAAiPVANSgUikpcBD8wMNDW1kasBwAAxHqggVt0cHBQ8nfiEusBAACxHphZa2trPp+XfLepVEqv1xPrAQAAsR6oBq1Wm8lkJN9tLBYzmUzEegAAQKwHqsFsNkciEcl36/P5bDYbsR4AABDrgWpwuVzd3d2S79ZqtQaDQWI9AAAg1gPVkEwmdTqdtPvM5/NKpXJ4eJhYDwAAiPVAlej1+lgsJuEOA4GAxWKp0ynJeAMAAGI9mlIwGGxvb5dqb/l8XqvVxuNxYj0AACDWA1VlMBhCoZAku3K73R0dHfU7JRlsAABArEez6u/vV6lUqVRqnvuJxWJqtboSd8wk1gMAAGI98NECgYBOp5vP+1zT6bTI9NFotK6nJCMNAACI9WhuTqdTJPu5nbOPx+Majcbv99f7lGSYAQAAsR5NLxAIqFSqy7rOvlAo+Hw+8VWVeKwVsR4AABDrgblIJBIGg6G9vX02d70Mh8N6vd5kMs3/unxiPQAAINYDEgsGgyKv63S67u7uSCSSyWTy+bzYnsvl0ul0X1+f3W7XaDRGo7EhTtIT6wEAALEe8pVMJl0ul9ls1mq1ra2top8VCoXI+haLxe12i3zfeFOSQQUAAMR60M8N/yMwigAAgFiP5hBa3TLhquuXrNzSf3Ji28gbP374zhsXLPz0l937spOfdyIdfz646UuPP0+sBwAAxHqKgLozEl7T8sCukZG3I+v1yzyHxze98ujSrhffO3V0598vWtIz+e7X/mfuM9+6oMW2m1gPAACI9RQB9We3rRjWz+xcffW6lyaS/vHMsffF/0//ZNX1j74y/TOJ9QAAgFgP1GOsPzdybNdDi7/w9OHJjedGckf3P2O7f1uqQKwHAAAg1qMRYv04xSLLU3tPlG28YvFXnt53fHSMWA8AAECsRyPE+g/D+oQP3j02dOpMNrPnsdu++N0MsR4AAIBYj3pXfMvs2fJNicf+/JFoLn+i/9u3L3qi//zWwtAPlrfc871M/hyxHpVVgTMAAA5JSURBVAAAEOuBurJ9xcQlOCu2nyhL+q8H/taovmZh2/J/jA5Nbtuz9sqWSZ07zxDrAQAAsR6gn4n1AACAGATQz8R6AABADALoZ2I9AAAg1gPEegAAQAwC6GdiPQAAIAYB9DOxHgAAEIMA+plYDwAAiPWgn4n1AACAGATQz8R6AABADALoZ2I9AACoilwu5/P5CoXC9BjU398fiUQoEYj1xHoAANAAurq62tra4vF4KQZls1m73a5SqcQH1AfEemI9AABoAENDQ62trSIArVmzRvzX7/eLQC8+cDqdFAfEemI9AABoGF1dXS0XUiqVnKoHsZ5YDwAAGknphH0Jp+pBrCfWAwCAxlN+wl6hUHCqHsR6Yj0AAGg85SfsRcSnICDWE+sBAEBDKp6wF+FeRHyqAWI9sR4AADQkkeY5VQ9iPbEeAAA0QwziVD2I9cR6XGB4eDgYDNpsNpPJpNfrtVptW1ub2Wy22+2hUCiXy1EiAEA95J5Lo0Qg1hPr5Ssej1ssFqVSabVafT5fLBZLpVKZTGZgYCAajXq93tLfii2UCwBArAeI9cT6+pJOpzs6OrRabSAQyOfzl/jMXC7n8XjUanVnZye/7gQAEOsBYj2xvl5Eo1ER091u96UDfblsNutwOMTLgGQySQEBAMR6gFhPrK8xv98vMn0sFpvD1/b29oqv7evro4wAAGI9QKwn1tdMJBLRaDTpdHrOe0gkEiLZc84eAECsB4j1xPraSKVSKpUqHo/Pcz+9vb1arZbr7AEAxHqAWE+srwGTyeTz+STZlcPh6OzspKQAAGI9QKwn1ldVJBLR6/WFQkGSvWWzWbVazV0vAQDEeoBYT6yvKqPRGA6HJdyhx+OxWq0UFgBArAeI9czAKkmn0xqNRtp95nI5pVJ5sWfQJpNJv99P5QEAxHqAWA/JuN1uu90u+W4tFksoFJoe6Ds6OlpbWzOZDJUHABDrAWI9pMzflbjZvNfrLX+1UAz0xWOry+Wi7AAAYj1ArIeUdDrdfO5VfzHRaNRsNk8J9IL452b//FoAAIj1oL2J9ZgVhUJxsYvg52NgYEAk+PJAXxSJRKg5AIBYDxDr0Ri9cuDAgRYAAOoDyz2IasT65tfa2lqJq2JSqVTxXviBQECn05UOrO3t7dQcACB57iHWg1hPrJc7rVZbifvSxGIxk8lU/HhKuOfulgAAYj1ArIfEzGZzJa539/l8NputfEsp3KtUqmw2S+UBAMR6gFgPybhcru7ubsl3a7Vag8Hg9O3FcO92u6k8AIBYDxDrIZlkMqnT6aTdZz6fVyqVw8PDlBcAQKwHiPWoEr1eH4vFJNxhIBCwWCwUFgBArAeI9czA6gkGgxLeoCafz2u12ng8TmEBAMR6gFjPDKwqg8EQCoUk2ZXb7e7o6KCkAABiPUCsJ9ZXWyKRUKlUqVRqnvuJxWJqtTqdTlNSAACxHiDWE+troHj3yfm8z1WkeZHpo9EoxQQAEOsBYj2xvmacTqdI9nM7Zx+PxzUaDY+aAgAQ6wFiPbG+9gKBgEqluqzr7AuFgs/nE19VicdaAQBArAexnliPuUgkEgaDob29fTZ3vQyHw3q93mQyzf+6fAAAiPUAsR4SCwaDIq/rdLru7u5IJJLJZPL5vNiey+XS6XRfX5/dbtdoNEajkZP0AABiPUCsJ9bXtWQy6XK5zGazVqttbW0VjaVQKETWt1gsbrebO94AAIj1ALGeWA8AAAAQ6zEPodXF8xdXXb9k5Zb+kxPbzg32df/F4muvXXTXo//n6DlqBACoa2d3ff3jH56QX/Xs6bGx47En773lumtvvPORnUcmF7K3d6+/Tb3QuLbvd1QMxHpifVMaCa9peWDXyMjbkfX6ZZ7D45v2O2749Lf2ZrMvP/ZnN37rACUCANS1Q1tdPzp2+rkHWx7sG3ln12Z/auzVTSud+46/d3xPl/4Gx/7xzzl3YGPbPVteO7htRdsTiVFqBmI9sb4Z7ba12HaL/5/ZufrqdS+Nb3ntqc/cve3Y2Fj2R/cZ/vnXVAgAUNeOpNMjpeVsNJN5c+w3wQ07DhWXtltdA+Ofk+pZ8kXf4NjYsW1mljYQ64n1zRzrz40c2/XQ4i88PXG2fuy95DNf+atvuv6nY9v/d4oCAQAaZjm7cNOpF594YOuhiXPzP19/zf0/FeF/5Kf3X7P+51QLxHpifZMeB8cpFlme2ntiYssHh/x/+1jfG9HH7vkfP0jzm0oAQEPG+uF9O3r7/zD5BxHr14RHJi49XbD+ZaoFYj2xXhbHwfFr678aen9s7L1/t05ekggAQEMtZ7lDL72cFkvZWDabHf9zqmfJXVuPjo0d/f5fLOnhuYkg1hPrm1HxLbNnyzf910bdpx/9+TvZ//dx/c2bXqVEAIDGWM5W7zxT/MOpI6+/OX4V6Whu/zM/nLj3w+j+DZ/+y+/++uD3//rWDfu5yRuI9cT6JrR9xcQlOCu2nyjbePxF51/92XXXLr77W3u4DRgAoP4d3Lx0Yjlbuvng+B8nry8dZ/K+VfyUt59ff9vChcZ1fUOUC8R6Yj0AAABArCfWAwAAAMR6AAAAgFhPrAcAAACI9cR6AAAAgFhPrAcAAACI9QAAAACxnlgPAAAAEOuJ9QAAAACxnlgPAAAAEOsBAACAppfNZgOBwIyxPh6PR6NRYj0AAADQADo7O41GYyKRKMX64eFhsVGpVObzeWI9AAAA0ADS6fQVV1whAr2I8uK/Pp9PBHrxgdPpbMQfh1gPAAAAmSoG+nIi2WezWWI9AAAA0DCGhoZaW1vLY32Dnqon1gMAAEDWurq6muBUPbEeAAAAslZ+wr5xT9UT6wEAACB3xRP2CoWicU/VE+sBAAAgd0NDQyLWi3Df0D8FsR4AAAByJ2K9CPfEeszX8PBwMBi02Wwmk0mv12u12ra2NrPZbLfbQ6FQLpejRAAAANLm+Esj1uPyxONxi8WiVCqtVqvP54vFYqlUKpPJDAwMRKNRr9db+luxhXIBAAAQ64n19SWdTnd0dGi12kAgcOkHFOdyOY/Ho1arOzs7G/3XQwAAAMR6Yn3ziEajIqa73e5LB/py2WzW4XCIlwHJZJICAgAAEOuJ9TXm9/tFpo/FYnP42t7eXvG1fX19lBEAAIBYT6yvmUgkotFo0un0nPeQSCREsuecPQAAALGeWF8bqVRKpVLF4/F57qe3t1er1XKdPQAAALGeWF8DJpPJ5/NJsiuHw9HZ2UlJAQAAiPXE+qqKRCJ6vb5QKEiyt2w2q1arueslAAAAsZ5YX1VGozEcDku4Q4/HY7VaKSwAAACxnlhfJel0WqPRSLvPXC6nVCov9gzaZDIZCASoPAAAALEeknG73Xa7XfLdWiyWUCg0PdB3dHS0trZmMhkqDwAAQKyHlPm7Ejeb93q95a8WioG+2Isul4uyAwAAEOshJZ1ON5971V9MNBo1m81TAr0g/rnZP78WAACAWE+sx6woFIqLXQQ/HwMDAyLBlwf6okgkQs0BAACI9ZC+dSqx28HBwRYAAABIjViPmbW2tlbiqphUKlW8F34gENDpdKVGbG9vp+YAAACcrYfEtFptJe5LE4vFTCZT8eMp4d7v91N2AAAAYj2kZDabK3G9u8/ns9ls5VtK4V6lUmWzWSoPAABArIdkXC5Xd3e35Lu1Wq3BYHD69mK4d7vdVB4AAIBYD8kkk0mdTiftPvP5vFKpHB4eprwAAADEelSJXq+PxWIS7jAQCFgsFgoLAABArCfWV08wGJTwBjX5fF6r1cbjcQoLAABArCfWV5XBYAiFQpLsyu12d3R0UFIAAABiPbG+2hKJhEqlSqVS89xPLBZTq9XpdJqSAgAAEOuJ9TVQvPvkfN7nKtK8yPTRaJRiAgAAEOuJ9TXjdDpFsp/bOft4PK7RaHjUFAAAALGeWF97gUBApVJd1nX2hULB5/OJr6rEY60AAACI9cR6zEUikTAYDO3t7bO562U4HNbr9SaTaf7X5QMAAIBYD4kFg0GR13U6XXd3dyQSyWQy+XxebM/lcul0uq+vz263azQao9HISXoAAABiPbG+riWTSZfLZTabtVpta2ur6CSFQiGyvsVicbvd3PEGAACAWE+sBwAAAJr9hQolqKjQ6uLrvauuX7JyS//J4sbsK9+592b1De3fDB0pUCIAAIBqObvr6x//8IT8qmdPj40djz157y3XXXvjnY/sPHJu/HOGtt5z/hPanvwVsR6TRsJrWh7YNTLydmS9fpnn8PimzL/esXj9z975/Qvrl3yj7zQlAgAAqJJDW10/Onb6uQdbHuwbeWfXZn9q7NVNK537jr93fE+X/gbH/vHP+eWO7+1/b3Rs7MxrL+97t4F+NmJ9pe22tdh2i/+f2bn66nUvjW+JPvyJVT85PbFl8YZfUiEAAIAqOZJOj5Ti2Wgm8+bYb4IbdhwqRrVbXQPjn3Py5MQFFm+9sPu1DxrpZyPWVyXWnxs5tuuhxV94euJs/aubbv7Mxn0nBl98bOknHuZRsQAAADWIZxduOvXiEw9sPTRa+vPIL3b8++HG+qmI9VXom3GKRZan9p6Y2DL6xg9X6hfe9Df/snE5Z+sBAABqHuuH9+3o7f9D2YZs6J+8bzTYT0Wsr8HLwaIP9j5+45d3vEuFAAAAahjPcodeejn9/niWz2YnN50K3f+NvrPEepQrvmX2grb4feLZ6OGTB7dZb1odOkGFAAAAqh7PVu88M5ngj7z+5inx/9Hc/md+eGDyMw58a7F9T6P9WMT6ytq+YuISnBXby/J75t9W3XLNJxfd1f3c0VEqBAAAUE0HNy+diGdLNx8c/+Pk9dLjTN63Jj+nf+Ptj/+CWA8AAACAWA8AAACAWA8AAAAQ6wEAAAAQ6wEAAABU1f8Pt/JfASrzxjYAAAAASUVORK5CYII=;" vertex="1" parent="1">
          <mxGeometry x="80" y="60" width="1010" height="810" as="geometry" />
        </mxCell>
        <mxCell id="LvfSIXSQXbOh8M_P0ZGA-3" value="" style="rounded=0;whiteSpace=wrap;html=1;fillColor=none;dashed=1;" vertex="1" parent="1">
          <mxGeometry x="70" y="50" width="190" height="120" as="geometry" />
        </mxCell>
        <mxCell id="LvfSIXSQXbOh8M_P0ZGA-4" value="" style="rounded=0;whiteSpace=wrap;html=1;fillColor=none;dashed=1;" vertex="1" parent="1">
          <mxGeometry x="70" y="250" width="190" height="190" as="geometry" />
        </mxCell>
        <mxCell id="LvfSIXSQXbOh8M_P0ZGA-5" value="" style="rounded=0;whiteSpace=wrap;html=1;fillColor=none;dashed=1;" vertex="1" parent="1">
          <mxGeometry x="70" y="522" width="190" height="188" as="geometry" />
        </mxCell>
        <mxCell id="LvfSIXSQXbOh8M_P0ZGA-6" value="" style="rounded=0;whiteSpace=wrap;html=1;fillColor=none;dashed=1;" vertex="1" parent="1">
          <mxGeometry x="70" y="760" width="190" height="50" as="geometry" />
        </mxCell>
        <mxCell id="LvfSIXSQXbOh8M_P0ZGA-7" value="" style="rounded=0;whiteSpace=wrap;html=1;fillColor=none;dashed=1;" vertex="1" parent="1">
          <mxGeometry x="70" y="820" width="190" height="50" as="geometry" />
        </mxCell>
        <mxCell id="LvfSIXSQXbOh8M_P0ZGA-9" value="" style="rounded=0;whiteSpace=wrap;html=1;fillColor=none;dashed=1;" vertex="1" parent="1">
          <mxGeometry x="390" y="50" width="200" height="120" as="geometry" />
        </mxCell>
        <mxCell id="LvfSIXSQXbOh8M_P0ZGA-10" value="" style="rounded=0;whiteSpace=wrap;html=1;fillColor=none;dashed=1;" vertex="1" parent="1">
          <mxGeometry x="390" y="250" width="114" height="130" as="geometry" />
        </mxCell>
        <mxCell id="LvfSIXSQXbOh8M_P0ZGA-12" value="" style="rounded=0;whiteSpace=wrap;html=1;fillColor=none;dashed=1;" vertex="1" parent="1">
          <mxGeometry x="510" y="250" width="114" height="130" as="geometry" />
        </mxCell>
        <mxCell id="LvfSIXSQXbOh8M_P0ZGA-13" value="" style="rounded=0;whiteSpace=wrap;html=1;fillColor=none;dashed=1;" vertex="1" parent="1">
          <mxGeometry x="390" y="630" width="160" height="80" as="geometry" />
        </mxCell>
        <mxCell id="LvfSIXSQXbOh8M_P0ZGA-14" value="" style="rounded=0;whiteSpace=wrap;html=1;fillColor=none;dashed=1;" vertex="1" parent="1">
          <mxGeometry x="550" y="440" width="270" height="130" as="geometry" />
        </mxCell>
        <mxCell id="LvfSIXSQXbOh8M_P0ZGA-15" value="" style="rounded=0;whiteSpace=wrap;html=1;fillColor=none;dashed=1;" vertex="1" parent="1">
          <mxGeometry x="370" y="40" width="460" height="540" as="geometry" />
        </mxCell>
        <mxCell id="LvfSIXSQXbOh8M_P0ZGA-17" value="" style="rounded=0;whiteSpace=wrap;html=1;fillColor=none;dashed=1;" vertex="1" parent="1">
          <mxGeometry x="810" y="630" width="160" height="80" as="geometry" />
        </mxCell>
        <mxCell id="LvfSIXSQXbOh8M_P0ZGA-19" value="" style="rounded=0;whiteSpace=wrap;html=1;fillColor=none;dashed=1;" vertex="1" parent="1">
          <mxGeometry x="990" y="600" width="100" height="150" as="geometry" />
        </mxCell>
        <mxCell id="LvfSIXSQXbOh8M_P0ZGA-21" value="" style="rounded=0;whiteSpace=wrap;html=1;fillColor=none;dashed=1;" vertex="1" parent="1">
          <mxGeometry x="890" y="280" width="200" height="80" as="geometry" />
        </mxCell>
        <mxCell id="LvfSIXSQXbOh8M_P0ZGA-23" value="&lt;font color=&quot;#ff0000&quot;&gt;reqToken&lt;/font&gt;" style="text;strokeColor=none;align=center;fillColor=none;html=1;verticalAlign=middle;whiteSpace=wrap;rounded=0;" vertex="1" parent="1">
          <mxGeometry x="200" y="140" width="60" height="30" as="geometry" />
        </mxCell>
        <mxCell id="LvfSIXSQXbOh8M_P0ZGA-24" value="&lt;font color=&quot;#ff0000&quot;&gt;getToken&lt;/font&gt;" style="text;strokeColor=none;align=center;fillColor=none;html=1;verticalAlign=middle;whiteSpace=wrap;rounded=0;" vertex="1" parent="1">
          <mxGeometry x="200" y="410" width="60" height="30" as="geometry" />
        </mxCell>
        <mxCell id="LvfSIXSQXbOh8M_P0ZGA-25" value="&lt;font color=&quot;#ff0000&quot;&gt;process&lt;/font&gt;" style="text;strokeColor=none;align=center;fillColor=none;html=1;verticalAlign=middle;whiteSpace=wrap;rounded=0;" vertex="1" parent="1">
          <mxGeometry x="200" y="680" width="60" height="30" as="geometry" />
        </mxCell>
        <mxCell id="LvfSIXSQXbOh8M_P0ZGA-26" value="&lt;font color=&quot;#ff0000&quot;&gt;showError&lt;/font&gt;" style="text;strokeColor=none;align=center;fillColor=none;html=1;verticalAlign=middle;whiteSpace=wrap;rounded=0;" vertex="1" parent="1">
          <mxGeometry x="120" y="770" width="60" height="30" as="geometry" />
        </mxCell>
        <mxCell id="LvfSIXSQXbOh8M_P0ZGA-27" value="&lt;font color=&quot;#ff0000&quot;&gt;show&lt;/font&gt;" style="text;strokeColor=none;align=center;fillColor=none;html=1;verticalAlign=middle;whiteSpace=wrap;rounded=0;" vertex="1" parent="1">
          <mxGeometry x="120" y="830" width="60" height="30" as="geometry" />
        </mxCell>
        <mxCell id="LvfSIXSQXbOh8M_P0ZGA-28" value="" style="rounded=0;whiteSpace=wrap;html=1;fillColor=none;dashed=1;" vertex="1" parent="1">
          <mxGeometry x="55" y="40" width="220" height="860" as="geometry" />
        </mxCell>
        <mxCell id="LvfSIXSQXbOh8M_P0ZGA-29" value="&lt;font color=&quot;#ff0000&quot;&gt;&lt;b&gt;Protal&lt;/b&gt;&lt;/font&gt;" style="text;strokeColor=none;align=center;fillColor=none;html=1;verticalAlign=middle;whiteSpace=wrap;rounded=0;" vertex="1" parent="1">
          <mxGeometry x="215" y="870" width="60" height="30" as="geometry" />
        </mxCell>
        <mxCell id="LvfSIXSQXbOh8M_P0ZGA-30" value="&lt;font color=&quot;#ff0000&quot;&gt;createToken&lt;/font&gt;" style="text;strokeColor=none;align=center;fillColor=none;html=1;verticalAlign=middle;whiteSpace=wrap;rounded=0;" vertex="1" parent="1">
          <mxGeometry x="525" y="52" width="60" height="30" as="geometry" />
        </mxCell>
        <mxCell id="LvfSIXSQXbOh8M_P0ZGA-31" value="&lt;font color=&quot;#ff0000&quot;&gt;returnToken&lt;/font&gt;" style="text;strokeColor=none;align=center;fillColor=none;html=1;verticalAlign=middle;whiteSpace=wrap;rounded=0;" vertex="1" parent="1">
          <mxGeometry x="396" y="250" width="64" height="30" as="geometry" />
        </mxCell>
        <mxCell id="LvfSIXSQXbOh8M_P0ZGA-32" value="&lt;font color=&quot;#ff0000&quot;&gt;saveToken&lt;/font&gt;" style="text;strokeColor=none;align=center;fillColor=none;html=1;verticalAlign=middle;whiteSpace=wrap;rounded=0;" vertex="1" parent="1">
          <mxGeometry x="557" y="250" width="64" height="30" as="geometry" />
        </mxCell>
        <mxCell id="LvfSIXSQXbOh8M_P0ZGA-33" value="&lt;font color=&quot;#ff0000&quot;&gt;verifyToken&lt;/font&gt;" style="text;strokeColor=none;align=center;fillColor=none;html=1;verticalAlign=middle;whiteSpace=wrap;rounded=0;" vertex="1" parent="1">
          <mxGeometry x="650" y="440" width="64" height="30" as="geometry" />
        </mxCell>
        <mxCell id="LvfSIXSQXbOh8M_P0ZGA-34" value="&lt;font color=&quot;#ff0000&quot;&gt;verify&lt;/font&gt;" style="text;strokeColor=none;align=center;fillColor=none;html=1;verticalAlign=middle;whiteSpace=wrap;rounded=0;" vertex="1" parent="1">
          <mxGeometry x="493" y="680" width="64" height="30" as="geometry" />
        </mxCell>
        <mxCell id="LvfSIXSQXbOh8M_P0ZGA-35" value="&lt;font color=&quot;#ff0000&quot;&gt;dbOperation&lt;/font&gt;" style="text;strokeColor=none;align=center;fillColor=none;html=1;verticalAlign=middle;whiteSpace=wrap;rounded=0;" vertex="1" parent="1">
          <mxGeometry x="901" y="682" width="64" height="30" as="geometry" />
        </mxCell>
        <mxCell id="LvfSIXSQXbOh8M_P0ZGA-36" value="&lt;font color=&quot;#ff0000&quot;&gt;returnData&lt;/font&gt;" style="text;strokeColor=none;align=center;fillColor=none;html=1;verticalAlign=middle;whiteSpace=wrap;rounded=0;" vertex="1" parent="1">
          <mxGeometry x="1026" y="726" width="64" height="30" as="geometry" />
        </mxCell>
        <mxCell id="LvfSIXSQXbOh8M_P0ZGA-37" value="&lt;font color=&quot;#ff0000&quot;&gt;&lt;b&gt;DB&lt;/b&gt;&lt;/font&gt;" style="text;strokeColor=none;align=center;fillColor=none;html=1;verticalAlign=middle;whiteSpace=wrap;rounded=0;" vertex="1" parent="1">
          <mxGeometry x="1046" y="330" width="44" height="30" as="geometry" />
        </mxCell>
        <mxCell id="LvfSIXSQXbOh8M_P0ZGA-38" value="&lt;font color=&quot;#ff0000&quot;&gt;&lt;b&gt;Auth&lt;/b&gt;&lt;/font&gt;" style="text;strokeColor=none;align=center;fillColor=none;html=1;verticalAlign=middle;whiteSpace=wrap;rounded=0;" vertex="1" parent="1">
          <mxGeometry x="756" y="50" width="64" height="30" as="geometry" />
        </mxCell>
        <mxCell id="LvfSIXSQXbOh8M_P0ZGA-39" value="" style="rounded=0;whiteSpace=wrap;html=1;fillColor=none;dashed=1;" vertex="1" parent="1">
          <mxGeometry x="370" y="590" width="730" height="170" as="geometry" />
        </mxCell>
        <mxCell id="LvfSIXSQXbOh8M_P0ZGA-41" value="&lt;font color=&quot;#ff0000&quot;&gt;&lt;b&gt;Proc&lt;/b&gt;&lt;/font&gt;" style="text;strokeColor=none;align=center;fillColor=none;html=1;verticalAlign=middle;whiteSpace=wrap;rounded=0;" vertex="1" parent="1">
          <mxGeometry x="650" y="730" width="64" height="30" as="geometry" />
        </mxCell>
      </root>
    </mxGraphModel>
  </diagram>
</mxfile>
